<svg width="26" height="27" viewBox="0 0 26 27" fill="none" xmlns="http://www.w3.org/2000/svg">
<path d="M24.8395 14.098C24.845 14.0925 24.845 14.0925 24.8505 14.087C24.8671 14.0649 24.8836 14.0484 24.8946 14.0263C24.9001 14.0208 24.9001 14.0153 24.9057 14.0098C24.9167 13.9878 24.9332 13.9657 24.9442 13.9437C24.9442 13.9382 24.9498 13.9326 24.9498 13.9326C24.9608 13.9106 24.9718 13.8886 24.9828 13.861C24.9828 13.8555 24.9828 13.8555 24.9883 13.85C24.9994 13.8279 25.0049 13.8004 25.0159 13.7728C25.0159 13.7673 25.0159 13.7618 25.0214 13.7618C25.0269 13.7342 25.0379 13.7122 25.0379 13.6846C25.0379 13.6736 25.0379 13.6681 25.0434 13.6571C25.049 13.635 25.049 13.613 25.0545 13.5909C25.06 13.5579 25.06 13.5303 25.06 13.4972C25.06 13.4642 25.06 13.4366 25.0545 13.4036C25.0545 13.3815 25.049 13.3595 25.0434 13.3374C25.0434 13.3264 25.0434 13.3209 25.0379 13.3099C25.0324 13.2823 25.0269 13.2603 25.0214 13.2327C25.0214 13.2272 25.0214 13.2217 25.0159 13.2217C25.0104 13.1941 24.9994 13.1721 24.9883 13.1445C24.9883 13.139 24.9883 13.139 24.9828 13.1335C24.9718 13.1115 24.9608 13.0839 24.9498 13.0619C24.9498 13.0563 24.9442 13.0508 24.9442 13.0508C24.9332 13.0288 24.9222 13.0067 24.9057 12.9847C24.9001 12.9792 24.9001 12.9737 24.8946 12.9682C24.8781 12.9461 24.8671 12.9241 24.8505 12.9075C24.845 12.902 24.845 12.902 24.8395 12.8965C24.8175 12.8745 24.8009 12.8469 24.7734 12.8249L19.3227 7.37967C18.9534 7.01042 18.3527 7.01042 17.9834 7.37967C17.6142 7.74893 17.6142 8.34967 17.9834 8.71893L21.8193 12.5548H6.56947C6.04589 12.5548 5.62152 12.9792 5.62152 13.4972C5.62152 14.0208 6.04589 14.4452 6.56947 14.4452H21.8248L18.0165 18.2535C17.6472 18.6228 17.6472 19.2235 18.0165 19.5928C18.1984 19.7747 18.4409 19.8683 18.6834 19.8683C18.9259 19.8683 19.1684 19.7747 19.3502 19.5928L24.7679 14.1751C24.7954 14.1421 24.8175 14.12 24.8395 14.098Z" fill="white"/>
<path d="M5.13105 1.89039H12.1855C12.7091 1.89039 13.1335 1.46601 13.1335 0.947949C13.1335 0.424372 12.7091 0 12.1855 0H5.13105C2.30374 0 0 2.30374 0 5.13105V21.869C0 24.6963 2.30374 27 5.13105 27H12.0698C12.5934 27 13.0178 26.5756 13.0178 26.0576C13.0178 25.534 12.5934 25.1096 12.0698 25.1096H5.13105C3.34538 25.1096 1.89039 23.6546 1.89039 21.869V5.13105C1.8959 3.33987 3.34538 1.89039 5.13105 1.89039Z" fill="white"/>
</svg>
