<?xml version="1.0" encoding="utf-8"?>
<!-- Generator: Adobe Illustrator 22.1.0, SVG Export Plug-In . SVG Version: 6.00 Build 0)  -->
<svg version="1.1" id="Layer_1" xmlns="http://www.w3.org/2000/svg" xmlns:xlink="http://www.w3.org/1999/xlink" x="0px" y="0px"
	 width="320px" height="240px" viewBox="0 0 320 240" style="enable-background:new 0 0 320 240;" xml:space="preserve">
<style type="text/css">
	.st0{fill:#FFFFFF;}
	.st1{fill:#E5E5E5;}
	.st2{fill:#000;}
</style>
<g>
	<path class="st0" d="M290.2,139.2c-0.7-1.5-8-12.5-11.7-14.4c-10.3-5.2-55.8-12.2-57.8-12.5c-0.2,0-0.4,0-0.6,0
		c0,0-0.6,0.2-2.5,0.5c0-0.1,0-0.2-0.1-0.3c-0.4-0.2-36.3-17.1-42.5-19.9c-2-0.9-3.5-1.1-4.3-1.1c-1.3,0-2.1,0.4-2.3,1.2
		c-0.1,0.3-0.1,1.2,1.5,2.1c9.6,5.2,22.6,14.1,29,18.7l-0.9,2.2c-0.2-0.2-0.6-0.3-0.9-0.3c-3.2,0.2-5.7,0.4-9.4,0.5
		c-7.9,0.3-29.2-1.1-52.2-2.9c-1.3-1.9-2.6-4.6-1.9-5.6c1-1.5,0.1-4.5-1.4-6c-1.1-1-2.3-1.2-3.4-0.5c-2.6,1.7-2.2,9-2,11.4
		c-6.9-0.5-13.8-1.1-20.3-1.7c-0.1-1.9-0.5-5.3-2.7-6.4c-2.9-1.5-28.5,2.8-31.4,3.3c-0.1,0-0.2,0.1-0.2,0.1c-6.7-0.6-10.8-1-11.1-1
		c-1.8,0.3-18.2,2.5-21.6,6c-3.2,3.2-3.3,10.6-3.3,12.7c-1.4,2-7.1,11-3.3,19.1c3.8,8.2,24.1,14.3,27.5,15.2
		c3.4,6.5,10.1,11.1,18,11.1c6.7,0,12.6-3.3,16.3-8.3H232c3.7,5,9.6,8.3,16.3,8.3c6.6,0,12.4-3.2,16.1-8.1c0.7,0.1,1.7,0.2,3.3,0.2
		c2.4,0,5.8-0.3,9.9-1.4c4.7-1.3,9.4-5.6,11.8-10.9C291.3,146.4,291.6,142.3,290.2,139.2z"/>
	<g>
		<g>
			<g>
				<g>
					<path class="st1" d="M40.4,129.6c-2,0-3.1-0.6-3.2-0.6c-0.4-0.2-0.6-0.8-0.3-1.2c0.2-0.4,0.8-10.4,0.8-10.8
						c0-0.5,0.4-0.9,0.9-0.9c13.5-0.3,13.8,1.1,13.9,1.8c0.3,1.7-2,8.4-7,10.6C43.4,129.4,41.7,129.6,40.4,129.6z"/>
				</g>
				<g>
					<path class="st1" d="M283,139.2c-1.3,0-2.9-0.2-4.7-0.8c-4.7-1.4-11.3-8.8-11.6-9.1c-0.2-0.3-0.3-0.6-0.1-0.9
						c0.1-0.3,0.5-0.5,0.8-0.5h14.2c0.5,0,0.9,0.4,0.9,0.9c0,0.5,5.1,7.7,5.4,8.1c0.3,0.4,0.2,0.9-0.2,1.2
						C287.5,138.2,286,139.2,283,139.2z"/>
				</g>
				<g>
					<path class="st1" d="M211.1,115.2c-0.2,0-0.4-0.1-0.5-0.2c-2.2-1.6-4-2.8-5.3-3.3c-2-0.8-3.2-1.2-3.9-1.3l-1.4,3.2
						c-0.1,0.2-0.3,0.4-0.6,0.5c-0.3,0.1-0.5,0-0.7-0.1c-6.3-4.5-19.5-13.6-29.2-18.9c-1.8-1-1.8-2.1-1.7-2.6
						c0.4-1.7,3.7-1.9,7.2-0.3c6.2,2.8,42.2,19.8,42.5,19.9c0.3,0.2,0.5,0.5,0.5,0.9c0,0.4-0.3,0.7-0.7,0.8l-6.1,1.4
						C211.3,115.2,211.2,115.2,211.1,115.2z"/>
				</g>
			</g>
		</g>
		<g>
			<path class="st2" d="M78.1,136.5c-7.7,0-13.9,6.2-13.9,13.9c0,7.7,6.2,13.9,13.9,13.9c7.7,0,13.9-6.2,13.9-13.9
				C92,142.7,85.8,136.5,78.1,136.5z M78.1,163.4c-7.2,0-13.1-5.9-13.1-13c0-7.2,5.9-13,13.1-13c7.2,0,13,5.9,13,13
				C91.1,157.6,85.3,163.4,78.1,163.4z"/>
			<path class="st2" d="M248.3,136.5c-7.7,0-13.9,6.2-13.9,13.9c0,7.7,6.2,13.9,13.9,13.9c7.7,0,13.9-6.2,13.9-13.9
				C262.3,142.7,256,136.5,248.3,136.5z M248.3,163.4c-7.2,0-13-5.9-13-13c0-7.2,5.9-13,13-13c7.2,0,13.1,5.9,13.1,13
				C261.4,157.6,255.5,163.4,248.3,163.4z"/>
			<path class="st2" d="M146.5,121.4c-1.2-0.6-3.6-0.8-5.5-0.8c-1.7,0-3.2,0.2-4.1,0.5c-2.4,0.9-3.2,3.1-3.2,3.2
				c0,0.1,0,0.3,0.1,0.4c0.1,0.1,0.2,0.2,0.3,0.2c0.1,0,6.3,0.4,10.5,0.4c3.7,0,4.1-0.3,4.3-0.7
				C149.5,123.2,148.1,122.2,146.5,121.4z M144.6,124.3c-3.4,0-8.1-0.3-9.8-0.4c0.4-0.6,1.1-1.6,2.4-2.1c0.8-0.3,2.2-0.4,3.8-0.4
				c2.2,0,4.2,0.3,5.1,0.7c1.9,1,2.2,1.5,2.1,1.9C148,124.2,147.2,124.3,144.6,124.3z"/>
			<path class="st2" d="M290.2,139.2c-0.7-1.5-8-12.5-11.7-14.4c-4.4-2.2-15.9-6-27.5-8.3c-14.6-2.9-29.3-4.1-30.3-4.2
				c-0.2,0-0.4,0-0.6,0c0,0-0.6,0.2-2.5,0.5c0-0.1,0-0.2-0.1-0.3c-0.4-0.2-36.3-17.1-42.5-19.9c-2-0.9-3.5-1.1-4.3-1.1
				c-1.3,0-2.1,0.4-2.3,1.2c-0.1,0.3-0.1,1.2,1.5,2.1c9.6,5.2,22.6,14.1,29,18.7l-0.9,2.2c-0.2-0.2-0.6-0.3-0.9-0.3
				c-3.2,0.2-5.7,0.4-9.4,0.5c-7.9,0.3-29.2-1.1-52.2-2.9c-1.3-1.9-2.6-4.6-1.9-5.6c1-1.5,0.1-4.5-1.4-6c-1.1-1-2.3-1.2-3.4-0.5
				c-2.6,1.7-2.2,9-2,11.4c-6.9-0.5-13.8-1.1-20.3-1.7c-0.1-1.9-0.5-5.3-2.7-6.4c-2.9-1.5-28.5,2.8-31.4,3.3c-0.1,0-0.2,0.1-0.2,0.1
				c-6.7-0.6-10.8-1-11.1-1c-1.8,0.3-18.2,2.5-21.6,6c-3.2,3.2-3.3,10.6-3.3,12.7c-1.4,2-7.1,11-3.3,19.1
				c3.8,8.2,24.1,14.3,27.5,15.2c3.4,6.5,10.1,11.1,18,11.1c6.7,0,12.6-3.3,16.3-8.3H232c3.7,5,9.6,8.3,16.3,8.3
				c6.6,0,12.4-3.2,16.1-8.1c0.7,0.1,1.7,0.2,3.3,0.2c2.4,0,5.8-0.3,9.9-1.4c4.7-1.3,9.4-5.6,11.8-10.9
				C291.3,146.4,291.6,142.3,290.2,139.2z M285.5,137.6c-1.3,0.4-3.6,0.6-6.8-0.4c-3.5-1.1-8.5-6.1-10.3-8h11.7
				C282.1,132,283.9,134.8,285.5,137.6z M197.9,117.5c0.1-0.1,0.1-0.3,0.2-0.4l1.6-3.6c0,0,0,0,0,0l1.2-2.8l0.3-0.8
				c0.5,0.1,1.8,0.4,4.3,1.4c0.1,0.1,0.3,0.2,0.5,0.2c0.6,0.3,1.2,0.5,1.9,1c0.2,0.1,0.4,0.3,0.6,0.4c0.7,0.5,1.5,1,2.3,1.6
				c1.2,0.9,2.2,1.7,2.8,2.2c-0.1,0.1-0.1,0.1-0.1,0.2c-2.4,0.8-8.5,2.6-12,2.6l-0.3,0c-2.5-0.1-3.4-0.3-3.7-0.5L197.9,117.5z
				 M212.1,114.5l0.4-0.1c0,0.1-0.1,0.2-0.1,0.3C212.3,114.7,212.2,114.6,212.1,114.5z M199,112.6c-6.5-4.6-19.3-13.4-28.9-18.7
				c-0.8-0.4-1.1-0.9-1-1.1c0.1-0.2,0.5-0.5,1.5-0.5c0.8,0,2.1,0.2,4,1c5.6,2.5,35.1,16.5,41.4,19.4l-4.6,1c0,0,0,0,0,0
				c-0.9-0.7-1.9-1.4-2.9-2c-0.1-0.1-0.2-0.1-0.3-0.2c-0.8-0.5-1.6-0.9-2.3-1.2c-3.6-1.4-4.8-1.5-4.9-1.5c0,0,0,0,0,0
				c-0.2,0-0.3,0.1-0.4,0.3L199,112.6z M129.1,101.6c0.8-0.5,1.5-0.4,2.3,0.4c1.3,1.3,1.9,3.8,1.2,4.9c-1,1.5,0.4,4.2,1.5,6
				c-2.2-0.2-4.4-0.3-6.6-0.5C127.2,109.4,127.1,103,129.1,101.6z M103.1,105c1.8,0.9,2.2,3.8,2.2,5.6c-11.7-1-22.4-1.9-30.4-2.7
				C86.2,106.1,101.3,104,103.1,105z M38.3,126.5c0.2-0.2,0.3-0.5,0.3-0.8c-0.1-1.6,0.1-5.4,1-8.3c5.4-0.1,11.1,0.2,11.6,0.7
				c0.2,1.1-1.8,7.2-6.3,9.2c-4.4,1.9-7,0.6-7,0.6c-0.2-0.1-0.5,0-0.6,0.2C37.8,127.1,38.3,126.5,38.3,126.5z M78.1,168.1
				c-9.8,0-17.7-8-17.7-17.7c0-9.8,8-17.7,17.7-17.7c9.8,0,17.7,8,17.7,17.7C95.8,160.1,87.9,168.1,78.1,168.1z M78.1,130
				c-11.2,0-20.3,9.1-20.3,20.3c0,2.2,0.4,4.2,1.1,6.2c-7.4-2.3-21.2-7.6-23.9-13.2c-2.6-5.6,0.6-12.3,2.3-15.2
				c-0.1,0.2,0,0.5,0.2,0.6c0.1,0,1.1,0.6,3,0.6c1.3,0,2.9-0.3,4.8-1.1c4.8-2.1,7.1-8.5,6.8-10.1c-0.3-1.3-6.5-1.5-12.2-1.4
				c0.3-0.8,0.7-1.6,1.2-2.1c2.1-2.1,13.5-4.4,19.8-5.3c1.3,0.1,12,1.1,26.6,2.4c-16.7-0.6-26.3,0.9-26.4,0.9
				c-0.2,0-0.4,0.3-0.4,0.5c0,0.2,0.2,0.4,0.4,0.4c0,0,0,0,0.1,0c0.1,0,13.6-2.2,36.7-0.3c0.2,0,0.5-0.2,0.5-0.4c0-0.1,0-0.1,0-0.1
				c8.5,0.7,17.7,1.5,27,2.3c0.3,2,3.3,22.8,18.7,39.1c-23.9-0.1-30-0.6-31.1-0.9c-3.1-1-4.6-4.4-6.9-9.4c-1.3-2.8-2.7-5.9-4.8-9.5
				c-6-10.4-19.5-11.6-19.7-11.6c-0.2,0-0.5,0.2-0.5,0.4c0,0.2,0.2,0.4,0.4,0.5c0.1,0,13.3,1.2,19,11.2c2.1,3.6,3.5,6.7,4.8,9.5
				c2.4,5.2,4,8.7,7.5,9.8c1.8,0.6,14.6,0.9,32.2,1c1.7,1.7,3.7,3.4,5.7,5H96c1.5-2.8,2.4-6,2.4-9.4C98.4,139.2,89.3,130,78.1,130z
				 M248.3,168.1c-9.8,0-17.7-8-17.7-17.7c0-9.8,8-17.7,17.7-17.7c9.8,0,17.7,8,17.7,17.7C266.1,160.1,258.1,168.1,248.3,168.1z
				 M287.1,149.4c-2.2,4.7-6.2,8.4-10.2,9.5c-5,1.3-8.8,1.4-10.8,1.2c1.6-2.9,2.6-6.2,2.6-9.8c0-11.2-9.1-20.3-20.3-20.3
				c-11.2,0-20.3,9.1-20.3,20.3c0,3.4,0.9,6.6,2.4,9.4H152c-2.1-1.6-4-3.3-5.8-5c3.6,0,7.3,0,11.2,0c16.9,0,36.3-0.1,54.2-0.3
				c2,0,3.2,0,3.5,0c2.9,0,3.9-1.9,4.9-5.6c1.7-6.5,8.5-23.4,19.7-23.4c0.2,0,0.4-0.2,0.4-0.4c0-0.2-0.2-0.4-0.4-0.4
				c-14.1,0-20.4,23.9-20.5,24.1c-1,3.8-1.9,4.9-4.1,4.9c-0.3,0-1.5,0-3.5,0c-30.4,0.3-51.6,0.3-66.3,0.3
				c-15.2-15.6-18.6-35.9-19-39c26.2,2.1,52.2,3.9,61.3,3.6c3.6-0.1,6.2-0.3,9.2-0.5l-0.5,1.1c0,0.1,0,0.3,0.1,0.5
				c0.2,0.3,1,0.8,4.5,0.9l0.3,0c4,0,11.2-2.3,12.9-2.8l20.6,3.6c0,0,0.1,0,0.1,0c0.2,0,0.4-0.2,0.4-0.4c0-0.2-0.1-0.5-0.4-0.5
				l-20.2-3.5c0,0,0-0.1,0-0.1c0,0-0.3-0.3-0.7-0.6c4-0.6,5.8-1,6.5-1.2c2.1,0.4,16.2,1.5,30,4.2c11.4,2.3,22.7,6,26.8,8.1
				c0.5,0.2,1.1,0.7,1.8,1.2h-11.7c-0.2,0-0.3,0.1-0.4,0.3c-0.1,0.2,0,0.3,0.1,0.5c0.3,0.3,6.9,7.6,11.4,9c1.8,0.6,3.3,0.7,4.6,0.7
				c1.4,0,2.4-0.2,3.1-0.5c0.8,1,1.5,1.7,1.6,2C288.9,142.7,288.6,146,287.1,149.4z"/>
		</g>
	</g>
</g>
</svg>
