<?xml version="1.0" encoding="utf-8"?>
<!-- Generator: Adobe Illustrator 22.1.0, SVG Export Plug-In . SVG Version: 6.00 Build 0)  -->
<svg version="1.1" id="Layer_1" xmlns="http://www.w3.org/2000/svg" xmlns:xlink="http://www.w3.org/1999/xlink" x="0px" y="0px"
	 width="320px" height="240px" viewBox="0 0 320 240" style="enable-background:new 0 0 320 240;" xml:space="preserve">
<style type="text/css">
	.st0{fill:#FFFFFF;}
	.st1{fill:#E5E5E5;}
	.st2{fill:#000;}
</style>
<g>
	<path class="st0" d="M290.8,139c-0.7-1.5-6.8-12.6-10.6-14.5c-4.2-2.1-51.5-11.5-62.4-13.4c-2.4-1.3-23.2-13.4-41.8-18.5
		c-18.1-4.9-34.9-6.2-56.2-4.1c-22.4,2.2-57.1,16.6-59.8,17.7c-2.5,0.3-18.2,2.6-21.6,6c-3.2,3.2-3.4,10.7-3.3,12.8
		c-1.4,2-7.1,11.1-3.4,19.2c3.8,8.2,24.3,14.3,27.7,15.3c3.4,6.6,10.2,11.1,18.1,11.1c6.8,0,12.7-3.3,16.4-8.4h138.3
		c3.7,5.1,9.7,8.4,16.4,8.4c6.6,0,12.5-3.2,16.2-8.1c0.7,0.1,1.8,0.2,3.3,0.2c2.4,0,5.8-0.3,9.9-1.4c4.7-1.3,9.4-5.6,11.9-11
		C292,146.3,292.3,142.1,290.8,139z"/>
	<g>
		<g>
			<g>
				<path class="st1" d="M283.7,139.1c-1.3,0-2.9-0.2-4.7-0.8c-4.7-1.4-11.4-8.8-11.7-9.1c-0.2-0.3-0.3-0.6-0.1-0.9
					c0.1-0.3,0.5-0.5,0.8-0.5h15.5c0.5,0,0.9,0.4,0.9,0.9c0,0.5,3.9,7.8,4.2,8.2c0.3,0.4,0.2,0.9-0.2,1.2
					C288.2,138,286.6,139.1,283.7,139.1z"/>
			</g>
			<g>
				<path class="st1" d="M39.8,129.5c-2,0-3.1-0.6-3.2-0.6c-0.4-0.2-0.6-0.8-0.3-1.2c0.2-0.4,0.8-10.4,0.8-10.9
					c0-0.5,0.4-0.9,0.9-0.9c13.6-0.3,13.8,1.1,14,1.8c0.3,1.7-2,8.5-7.1,10.7C42.8,129.2,41.1,129.5,39.8,129.5z"/>
			</g>
			<g>
				<path class="st1" d="M197.1,119.1C197.1,119.1,197.1,119.1,197.1,119.1l-104.8-6.2c-0.3,0-0.5-0.2-0.7-0.4
					c-0.2-0.2-0.2-0.5-0.1-0.8c0.3-0.8,7.8-18.6,44.8-18.6c0.8,0,1.5,0,2.3,0c12.6,0.3,21.4,1.4,28.9,2.7
					c13.4,2.2,29.6,10.7,33.5,13.8c0.3,0.2,0.4,0.7,0.3,1l-3.4,8C197.8,118.9,197.5,119.1,197.1,119.1z"/>
			</g>
		</g>
		<g>
			<path class="st2" d="M77.6,136.3c-7.7,0-14,6.3-14,14c0,7.7,6.3,14,14,14c7.7,0,14-6.3,14-14C91.6,142.5,85.4,136.3,77.6,136.3z
				 M77.6,163.4c-7.2,0-13.1-5.9-13.1-13.1c0-7.2,5.9-13.1,13.1-13.1c7.2,0,13.1,5.9,13.1,13.1C90.8,157.5,84.9,163.4,77.6,163.4z"
				/>
			<path class="st2" d="M248.8,136.3c-7.7,0-14,6.3-14,14c0,7.7,6.3,14,14,14c7.7,0,14-6.3,14-14
				C262.8,142.5,256.5,136.3,248.8,136.3z M248.8,163.4c-7.2,0-13.1-5.9-13.1-13.1c0-7.2,5.9-13.1,13.1-13.1
				c7.2,0,13.1,5.9,13.1,13.1C261.9,157.5,256,163.4,248.8,163.4z"/>
			<path class="st2" d="M290.8,139c-0.7-1.5-6.8-12.6-10.6-14.5c-4.9-2.4-12-5-25.2-7.5c-12.9-2.4-35.3-5.6-37.2-5.9
				c-2.4-1.3-23.2-13.4-41.8-18.5c-18.1-4.9-34.9-6.2-56.2-4.1c-22.4,2.2-57.1,16.6-59.8,17.7c-2.5,0.3-18.2,2.6-21.6,6
				c-3.2,3.2-3.4,10.7-3.3,12.8c-1.4,2-7.1,11.1-3.4,19.2c3.8,8.2,24.3,14.3,27.7,15.3c3.4,6.6,10.2,11.1,18.1,11.1
				c6.8,0,12.7-3.3,16.4-8.4h138.3c3.7,5.1,9.7,8.4,16.4,8.4c6.6,0,12.5-3.2,16.2-8.1c0.7,0.1,1.8,0.2,3.3,0.2
				c2.4,0,5.8-0.3,9.9-1.4c4.7-1.3,9.4-5.6,11.9-11C292,146.3,292.3,142.1,290.8,139z M286.2,137.4c-1.3,0.4-3.6,0.6-6.9-0.4
				c-3.5-1.1-8.6-6.1-10.4-8h12.6C283.6,131.6,284.7,134.6,286.2,137.4z M37.6,126.3c0.2-0.2,0.3-0.5,0.3-0.8
				c-0.1-1.7,0.1-5.4,1-8.3c5.4-0.1,11.2,0.2,11.7,0.7c0.2,1.2-1.8,7.2-6.3,9.2c-4.4,1.9-7,0.6-7,0.6c-0.2-0.1-0.4,0-0.6,0.2
				C37.2,126.9,37.6,126.3,37.6,126.3z M77.6,168.1c-9.8,0-17.8-8-17.8-17.8c0-9.8,8-17.8,17.8-17.8c9.8,0,17.8,8,17.8,17.8
				C95.5,160.1,87.5,168.1,77.6,168.1z M248.8,168.1c-9.8,0-17.8-8-17.8-17.8c0-9.8,8-17.8,17.8-17.8c9.8,0,17.8,8,17.8,17.8
				C266.6,160.1,258.6,168.1,248.8,168.1z M287.7,149.3c-2.2,4.7-6.2,8.5-10.2,9.6c-5,1.4-8.8,1.4-10.9,1.2c1.6-2.9,2.6-6.3,2.6-9.9
				c0-11.3-9.2-20.4-20.4-20.4c-11.3,0-20.4,9.2-20.4,20.4c0,3.4,0.9,6.6,2.4,9.4h-78.8c-2.1-1.6-4.1-3.3-5.9-5c3.6,0,7.3,0,11.1,0
				c17,0,36.6-0.1,54.6-0.3c2,0,3.2,0,3.5,0c2.9,0,4-1.9,4.9-5.6c1.7-6.6,8.5-23.6,19.8-23.6c0.2,0,0.4-0.2,0.4-0.4
				c0-0.2-0.2-0.4-0.4-0.4c-14.2,0-20.6,24-20.6,24.2c-1,3.8-1.9,4.9-4.1,4.9c-0.3,0-1.5,0-3.5,0c-30.6,0.3-51.9,0.3-66.7,0.3
				c-15.7-16.1-18.8-37.1-19.1-39.4l70.5,4.2l-0.1,0.2c0,0.1,0,0.4,0.1,0.5c0.2,0.3,1,0.8,4.6,0.9l0.3,0c2.2,0,5.3-0.7,8-1.4
				l18.6,1.4c0,0,0,0,0,0c0.2,0,0.4-0.2,0.4-0.4c0-0.2-0.2-0.4-0.4-0.5l-16.2-1.2c1.6-0.5,2.8-0.9,2.9-0.9c0.1,0,0.3-0.2,0.3-0.3
				c0-0.2,0-0.3-0.1-0.4c-0.2-0.2-5.4-4.7-9-6.2c-3.6-1.5-4.8-1.5-4.9-1.5c0,0,0,0,0,0c-0.2,0-0.3,0.1-0.4,0.3l-0.3,0.7
				c-4.5-3.3-19.9-11.3-32.9-13.4c-7.6-1.2-16.3-2.4-28.9-2.7c-0.8,0-1.6,0-2.3,0c-1.3,0-2.6,0.1-3.9,0.1c-0.2-0.1-0.3-0.1-0.5,0
				c0,0,0,0,0,0c-30.6,1.3-38.8,15.8-39.9,17.9c-19.9-1.2-31.4,0.7-31.5,0.7c-0.2,0-0.4,0.3-0.4,0.5c0,0.2,0.2,0.4,0.4,0.4
				c0,0,0,0,0.1,0c0.1,0,13.7-2.2,36.9-0.3c0.1,0,0.1,0,0.1-0.1l27.4,1.6c0.1,0.9,2.8,22.6,18.8,39.4c-24-0.1-30.2-0.6-31.2-0.9
				c-3.1-1.1-4.7-4.4-7-9.4c-1.3-2.8-2.7-6-4.8-9.6c-6-10.4-19.6-11.6-19.8-11.6c-0.2,0-0.5,0.2-0.5,0.4c0,0.2,0.2,0.5,0.4,0.5
				c0.1,0,13.3,1.2,19.1,11.2c2.1,3.6,3.5,6.7,4.8,9.5c2.4,5.3,4,8.7,7.5,9.9c1.8,0.6,14.7,0.9,32.3,1c1.7,1.8,3.7,3.4,5.7,5H95.7
				c1.5-2.8,2.4-6,2.4-9.4c0-11.3-9.2-20.4-20.4-20.4c-11.3,0-20.4,9.2-20.4,20.4c0,2.2,0.4,4.2,1.1,6.2c-7.5-2.3-21.3-7.6-24-13.3
				c-2.6-5.7,0.6-12.3,2.3-15.3c-0.1,0.2,0,0.5,0.2,0.6c0.1,0,1.1,0.6,3,0.6c1.3,0,2.9-0.3,4.8-1.1c4.8-2.1,7.1-8.5,6.8-10.2
				c-0.3-1.3-6.5-1.5-12.2-1.5c0.3-0.8,0.7-1.6,1.2-2.1c2.2-2.2,13.5-4.4,20.2-5.3c0.1,0,0.2,0,0.3-0.1c0.4-0.2,36.4-15.3,59.2-17.6
				c20.9-2.1,37.5-0.9,55.2,4c19.2,5.2,41.2,18.2,41.4,18.4c0.1,0.1,0.3,0.1,0.4,0.1c0.2,0,23.7,3.3,37.7,6
				c12.9,2.4,19.6,4.9,24.2,7.2c0.5,0.2,1.1,0.7,1.8,1.2h-12.9c-0.2,0-0.3,0.1-0.4,0.3c-0.1,0.2,0,0.3,0.1,0.5
				c0.3,0.3,6.9,7.6,11.5,9c1.8,0.6,3.4,0.7,4.6,0.7c1.4,0,2.4-0.2,3.1-0.5c0.8,1,1.5,1.7,1.6,2
				C289.6,142.5,289.3,145.9,287.7,149.3z M93,111.6c1.5-2.8,9.8-15.6,37.9-17.1c-7,6.3-6.3,16.2-5.9,19L93,111.6z M132.3,94.5
				c1.3-0.1,2.6-0.1,4-0.1c0.8,0,1.5,0,2.3,0c12.5,0.2,21.2,1.4,28.8,2.7c12.9,2.1,28.4,10.1,32.6,13.3l-3.2,7.4l-70.9-4.2
				C125.5,110.9,124.7,100.6,132.3,94.5z M208.3,117.8c-0.2,0-0.5,0.2-0.5,0.4c0,0,0,0,0,0.1c-2.3,0.5-4.6,1-6.4,1l-0.3,0
				c-2.5-0.1-3.4-0.3-3.8-0.5l3.9-9.2c0.5,0.1,1.8,0.4,4.3,1.4c2.8,1.1,6.7,4.3,8.2,5.5c-0.9,0.3-2.6,0.8-4.5,1.3L208.3,117.8z"/>
			<path class="st2" d="M146.4,121.1c-1.2-0.6-3.6-0.8-5.5-0.8c-1.7,0-3.2,0.2-4.1,0.5c-2.4,0.9-3.2,3.1-3.2,3.2
				c0,0.1,0,0.3,0.1,0.4c0.1,0.1,0.2,0.2,0.3,0.2c0.1,0,6.3,0.4,10.6,0.4c3.7,0,4.2-0.3,4.3-0.7C149.4,122.9,148,122,146.4,121.1z
				 M144.5,124.1c-3.4,0-8.2-0.3-9.9-0.4c0.4-0.6,1.1-1.6,2.4-2.1c0.8-0.3,2.2-0.4,3.8-0.4c2.2,0,4.2,0.3,5.1,0.7
				c1.9,1,2.2,1.6,2.1,1.9C147.9,123.9,147.1,124.1,144.5,124.1z"/>
		</g>
	</g>
</g>
</svg>
