<?xml version="1.0" encoding="utf-8"?>
<!-- Generator: Adobe Illustrator 22.1.0, SVG Export Plug-In . SVG Version: 6.00 Build 0)  -->
<svg version="1.1" id="Layer_1" xmlns="http://www.w3.org/2000/svg" xmlns:xlink="http://www.w3.org/1999/xlink" x="0px" y="0px"
	 width="320px" height="240px" viewBox="0 0 320 240" style="enable-background:new 0 0 320 240;" xml:space="preserve">
<style type="text/css">
	.st0{fill:#E5E5E5;}
	.st1{fill:#000;}
</style>
<g>
	<g>
		<path class="st0" d="M273.6,124.7c0,0-0.1,0-0.1,0c-0.2,0-15.8-4.3-22.8-5.7c-4.7-0.9-6.6-3.7-7-4c-0.2-0.1-0.2-0.3-0.2-0.5
			c0.1-0.2,0.3-0.3,0.4-0.3l16.8,0.6c0.2,0,9.8,4.5,12.9,9c0.1,0.2,0.4,0.3,0.3,0.5C274,124.6,273.8,124.7,273.6,124.7z"/>
	</g>
	<path class="st0" d="M204.7,110.7C204.7,110.7,204.7,110.7,204.7,110.7c0.3-0.6,0.1-1.5,0-1.6c0-0.2-0.5-4.5-4.3-6.1
		c-2.4-1-4-1.4-4.5-1.1c-0.1,0.1-0.2,0.2-0.2,0.3l-1.4,7.9c-27.4-1.6-74.8-4.5-84.7-5.5c-9.9-1-17.1-8.9-17.6-12.7
		c-0.1-1,0.2-1.7,1-1.9c4.1-1.5,23.6-4.3,52.1-4.3c28,0,68,18.5,73,21.3c3.2,1.8,3.8,3.9,3.9,4.8
		C220.4,111.6,214.2,111.3,204.7,110.7z"/>
	<g>
		<path class="st1" d="M255,158.8c-0.6,0-1.2-0.4-1.3-1.1c-0.1-0.7,0.3-1.4,1-1.5l12.1-3.1c0.1,0,4.4-0.8,6.9-4.6
			c2-3,2.4-11.4,1.1-16.6c-4-16.6-24.5-24.1-44.8-25.3c-0.1,0-0.3,0-0.4-0.1c-0.4-0.2-42.4-17.6-61.7-22.9
			c-19.4-5.3-45.4-2.8-63.3-0.5c-18.1,2.3-35.4,5.3-35.5,5.4c-0.7,0.2-1.4,0.5-1.7,0.8c0.1,0,0.5,0.5,1.7,1.1
			c0.5,0.3,1.3,0.9,1.3,2.3c0,5.6-8.8,20.1-13.7,26.2c-1.5,1.7-4.9,5.6-6.5,11.5c-1.9,7.5-1.8,14.6-0.4,16.6
			c4.8,7.1,16.1,5.8,16.2,5.7c0.7-0.1,1.4,0.4,1.5,1.1c0.1,0.7-0.4,1.4-1.1,1.5c-0.5,0.1-12.9,1.5-18.7-6.9
			c-2.2-3.3-1.6-12.1,0.1-18.7c1-4,3.2-10.2,7.8-13.2c4.1-5.9,13.1-21.1,12.3-24c-0.7-0.3-3.2-1.6-3-3.7c0.2-2,2.8-2.7,3.6-2.9
			c0.3-0.1,17.5-3.1,35.9-5.4c18.1-2.3,44.4-4.8,64.3,0.6c18.8,5.1,58.6,21.6,61.8,22.9c23.7,1.7,42.6,9.4,47,27.3
			c1.4,5.9,0.9,15-1.5,18.7c-3.2,4.7-8.4,5.6-8.6,5.7l-12.1,3.1C255.1,158.8,255,158.8,255,158.8z"/>
	</g>
	<g>
		<path class="st1" d="M222.5,112.6C222.5,112.6,222.5,112.6,222.5,112.6c0,0-7-0.4-18.7-1.1c-0.2,0-0.4-0.2-0.4-0.5
			c0-0.2,0.2-0.4,0.5-0.4c10,0.6,16.5,1,18.2,1.1c-0.1-0.9-0.7-3-3.9-4.8c-5.1-2.8-45-21.3-73-21.3c-28.5,0-48,2.8-52.1,4.3
			c-0.8,0.3-1.1,0.9-1,1.9c0.5,3.8,7.7,11.7,17.6,12.7c9.9,1,57.4,3.9,84.8,5.5c0.2,0,0.4,0.2,0.4,0.5c0,0.2-0.2,0.4-0.5,0.4
			c-27.4-1.6-74.9-4.5-84.9-5.5c-9.6-1-17.8-8.8-18.4-13.5c-0.2-1.4,0.4-2.4,1.6-2.9c4.2-1.5,23.8-4.3,52.4-4.3
			c28.2,0,68.3,18.6,73.4,21.4c4.6,2.6,4.4,5.9,4.4,6.1C223,112.4,222.8,112.6,222.5,112.6z"/>
	</g>
	<g>
		<path class="st1" d="M85.3,164.3c-7.7,0-14-6.3-14-14s6.3-14,14-14c7.7,0,14,6.3,14,14S93.1,164.3,85.3,164.3z M85.3,137.1
			c-7.2,0-13.1,5.9-13.1,13.1s5.9,13.1,13.1,13.1c7.2,0,13.1-5.9,13.1-13.1S92.6,137.1,85.3,137.1z"/>
	</g>
	<g>
		<path class="st1" d="M237.2,164.3c-7.7,0-14-6.3-14-14s6.3-14,14-14s14,6.3,14,14S245,164.3,237.2,164.3z M237.2,137.1
			c-7.2,0-13.1,5.9-13.1,13.1s5.9,13.1,13.1,13.1s13.1-5.9,13.1-13.1S244.5,137.1,237.2,137.1z"/>
	</g>
	<g>
		<path class="st1" d="M219.5,158.8h-116c-0.7,0-1.3-0.6-1.3-1.3s0.6-1.3,1.3-1.3h116c0.7,0,1.3,0.6,1.3,1.3
			S220.3,158.8,219.5,158.8z"/>
	</g>
	<g>
		<path class="st1" d="M155,157.9c-0.2,0-0.3-0.1-0.4-0.3c-8.7-22.6-7.9-45.9-7.9-46.1c-0.1-0.7-3.2-17.9-0.1-26.3
			c0.1-0.2,0.3-0.3,0.6-0.3c0.2,0.1,0.3,0.3,0.3,0.6c-3,8.1,0.2,25.8,0.2,25.9c0,0.3-0.8,23.4,7.8,45.9c0.1,0.2,0,0.5-0.3,0.6
			C155.1,157.9,155.1,157.9,155,157.9z"/>
	</g>
	<g>
		<path class="st1" d="M273.6,124.7c0,0-0.1,0-0.1,0c-0.2,0-15.8-4.3-22.8-5.7c-4.7-0.9-6.6-3.7-7-4c-0.2-0.1-0.2-0.3-0.2-0.5
			c0.1-0.2,0.3-0.3,0.4-0.3l16.8,0.6c0.2,0,0.4,0.2,0.4,0.5c0,0.2-0.2,0.4-0.4,0.4c0,0,0,0,0,0l-15.3-0.5c3,1.9,1.9,2.3,5.4,3
			c7,1.4,22.7,5.7,22.8,5.7c0.2,0.1,0.4,0.3,0.3,0.5C274,124.6,273.8,124.7,273.6,124.7z"/>
	</g>
	<g>
		<path class="st1" d="M168.8,119c-4.3,0-10.5-0.4-10.6-0.4c-0.1,0-0.3-0.1-0.3-0.2c-0.1-0.1-0.1-0.3,0-0.4c0-0.1,0.8-2.3,3.2-3.2
			c0.9-0.3,2.4-0.5,4.1-0.5c1.9,0,4.3,0.2,5.5,0.8c1.6,0.8,3,1.8,2.5,3.1C173,118.7,172.6,119,168.8,119z M158.9,117.8
			c1.7,0.1,6.5,0.4,9.9,0.4c2.6,0,3.3-0.2,3.5-0.2c0.1-0.4-0.2-0.9-2.1-1.9c-0.9-0.4-2.9-0.7-5.1-0.7c-1.6,0-3,0.2-3.8,0.4
			C160,116.1,159.3,117.1,158.9,117.8z"/>
	</g>
	<g>
		<path class="st1" d="M114.4,117.1c-4.3,0-10.5-0.4-10.6-0.4c-0.1,0-0.3-0.1-0.3-0.2c-0.1-0.1-0.1-0.3,0-0.4c0-0.1,0.8-2.3,3.2-3.2
			c0.9-0.3,2.4-0.5,4.1-0.5c1.9,0,4.3,0.2,5.5,0.8c1.6,0.8,3,1.8,2.5,3.1C118.5,116.8,118.1,117.1,114.4,117.1z M104.5,115.9
			c1.7,0.1,6.5,0.4,9.9,0.4c2.6,0,3.3-0.2,3.5-0.2c0.1-0.4-0.2-0.9-2.1-1.9c-0.9-0.4-2.9-0.7-5.1-0.7c-1.6,0-3,0.2-3.8,0.4
			C105.6,114.2,104.8,115.2,104.5,115.9z"/>
	</g>
	<g>
		<path class="st1" d="M156.9,151c-22.1,0-34.3-0.3-36.3-1c-4.7-1.6-6.3-4.5-10.8-12.4c-0.6-1-1.2-2.1-1.9-3.4
			c-5.8-10-17-11.2-17.1-11.2c-0.2,0-0.4-0.2-0.4-0.5c0-0.2,0.2-0.4,0.5-0.4c0.1,0,11.8,1.2,17.8,11.6c0.7,1.2,1.3,2.3,1.9,3.4
			c4.4,7.7,6,10.5,10.3,12c2,0.7,17.6,1.3,79.9,0.7c1.9,0,3.1,0,3.4,0c2.2,0,3.1-1.1,4.1-4.9c1-3.9,5.2-17.1,15.9-20.5
			c0.2-0.1,0.5,0.1,0.6,0.3c0.1,0.2-0.1,0.5-0.3,0.5c-10.3,3.3-14.3,16.1-15.3,19.9c-1,3.7-2,5.6-4.9,5.6c-0.3,0-1.5,0-3.4,0
			C183.4,150.9,168.7,151,156.9,151z"/>
	</g>
	<g>
		<path class="st1" d="M41.8,107.7"/>
	</g>
	<g>
		<path class="st0" d="M67.9,111.9c-13.6,0-24.7-11.1-24.7-24.7c0-13.6,11.1-24.7,24.7-24.7c13.6,0,24.7,11.1,24.7,24.7
			C92.6,100.8,81.5,111.9,67.9,111.9z"/>
	</g>
	<g>
		<g>
			<path class="st1" d="M64.4,102.5c-0.1,0-0.2,0-0.3-0.1c-0.2-0.1-0.3-0.4-0.1-0.6l5.3-10.9l-11.1,0c-0.2,0.1-0.4,0-0.5-0.2
				c-0.1-0.2-0.1-0.4,0-0.5l13.9-18c0.1-0.2,0.4-0.3,0.6-0.2c0.2,0.1,0.3,0.4,0.2,0.6L67.2,85l11.2,0c0.2-0.1,0.4,0,0.5,0.2
				c0.1,0.2,0.1,0.4,0,0.5l-14.1,16.6C64.7,102.5,64.6,102.5,64.4,102.5z"/>
		</g>
	</g>
	<g>
		<path class="st1" d="M67.9,111.9c-13.6,0-24.7-11.1-24.7-24.7c0-13.6,11.1-24.7,24.7-24.7c13.6,0,24.7,11.1,24.7,24.7
			C92.6,100.8,81.5,111.9,67.9,111.9z M67.9,65C55.7,65,45.8,75,45.8,87.2c0,12.2,9.9,22.1,22.1,22.1c12.2,0,22.1-9.9,22.1-22.1
			C90,75,80.1,65,67.9,65z"/>
	</g>
	<g>
		<path class="st1" d="M237.2,170.7c-11.3,0-20.4-9.2-20.4-20.4s9.2-20.4,20.4-20.4s20.4,9.2,20.4,20.4S248.5,170.7,237.2,170.7z
			 M237.2,132.4c-9.8,0-17.8,8-17.8,17.8s8,17.8,17.8,17.8s17.8-8,17.8-17.8S247.1,132.4,237.2,132.4z"/>
	</g>
	<g>
		<path class="st1" d="M85.3,170.7c-11.3,0-20.4-9.2-20.4-20.4s9.2-20.4,20.4-20.4c11.3,0,20.4,9.2,20.4,20.4S96.6,170.7,85.3,170.7
			z M85.3,132.4c-9.8,0-17.8,8-17.8,17.8s8,17.8,17.8,17.8c9.8,0,17.8-8,17.8-17.8S95.2,132.4,85.3,132.4z"/>
	</g>
	<g>
		<path class="st1" d="M199.1,112.8L199.1,112.8c-0.2,0-0.4,0-0.6,0c-4.2-0.1-4.3-0.5-4.5-0.7c0-0.1-0.1-0.2,0-0.3h0l1.8-9.6
			c0-0.1,0.1-0.2,0.2-0.3c0.5-0.3,2.1,0,4.5,1.1c3.7,1.6,4.3,5.9,4.3,6.1c0,0.1,0.2,1.1,0,1.6C204.5,111.1,203.5,112.8,199.1,112.8z
			 M195,111.6c0.4,0.1,1.3,0.2,3.6,0.3c4.4,0.2,5.3-1.6,5.3-1.6c0.1-0.2,0-0.8,0-1.1c0-0.1-0.5-4-3.7-5.4c-2.2-0.9-3.2-1.1-3.6-1.1
			L195,111.6z"/>
	</g>
</g>
</svg>
