<?xml version="1.0" encoding="utf-8"?>
<!-- Generator: Adobe Illustrator 22.1.0, SVG Export Plug-In . SVG Version: 6.00 Build 0)  -->
<svg version="1.1" id="Layer_1" xmlns="http://www.w3.org/2000/svg" xmlns:xlink="http://www.w3.org/1999/xlink" x="0px" y="0px"
	 width="320px" height="240px" viewBox="0 0 320 240" style="enable-background:new 0 0 320 240;" xml:space="preserve">
<style type="text/css">
	.st0{fill:#FFFFFF;}
	.st1{fill:#E5E5E5;}
	.st2{fill:#000;}
</style>
<g>
	<path class="st0" d="M270.8,130.1l-0.5-0.6c-2.6-3.2-1.9-7.1-5.1-8.1l-52.5-16.2c-2.6-1.8-29.1-20.5-48.4-24.8
		c-18.6-4.2-35.4-3.7-51.6-3.3c-2.6,0.1-5.3,0.1-7.9,0.2c-19.5,0.4-31.3,3.2-35.1,4.1l-0.4,0.1c-5.8,1.4-21.5,23.6-22.1,26.5
		c-1.1,5-0.2,12.8,0,14.6c-0.8,2.2-5.2,15-1.4,23.1c3.6,7.7,9.6,9.3,11.3,9.6c2.2,8.9,10.2,15.4,19.8,15.4c8.3,0,15.4-5,18.6-12.1
		c0.2,0.1,0.3,0.2,0.5,0.2h121.6c3.3,7,10.3,11.9,18.5,11.9c6.1,0,11.5-2.7,15.2-7l13.5-1.4c0.7,0.1,3.3,0.2,5.7-1.8
		c3.2-2.6,4.8-7.6,4.9-14.8c0-1.2,0.1-2.2,0.1-3.1C275.9,138.2,275.8,135.8,270.8,130.1z"/>
	<g>
		<g>
			<g>
				<g>
					<path class="st1" d="M49.6,126.6c-1.7,0-2.7-0.6-2.8-0.7c-0.4-0.3-0.5-0.8-0.2-1.2c0.3-0.4,0.6-10.3,0.6-10.8
						c0-0.5,0.4-0.9,0.8-0.9c11.3-0.3,11.6,1.2,11.7,1.8c0.3,1.7-1.7,8.4-5.9,10.6C52.1,126.3,50.7,126.6,49.6,126.6z"/>
				</g>
				<g>
					<path class="st1" d="M266,137.5c-1.8,0-3.8-0.3-5.5-1.5c-4.2-2.7-6.2-8.2-6.3-8.5c-0.1-0.3-0.1-0.6,0.1-0.8
						c0.2-0.2,0.4-0.4,0.7-0.4l15-0.1c0.5,0,0.9,0.4,0.9,0.9c0,0.5,2.6,8,2.7,8.4c0.2,0.5-0.1,1-0.5,1.1
						C272.8,136.8,268.6,137.5,266,137.5z"/>
				</g>
				<g>
					<path class="st1" d="M195.4,114.1C195.4,114.1,195.4,114.1,195.4,114.1L80,109.7c-0.3,0-0.6-0.2-0.7-0.5
						c-0.8-1.5,0.6-14.9,1.2-19c0.6-4,12.8-6.1,36.4-6.1c5,0,10.2,0.1,15.5,0.3c29.8,1.1,39.9,4.4,52.5,11.8
						c4.6,2.7,9.1,5.9,13.5,9.4c0.3,0.2,0.4,0.6,0.3,1l-2.4,7C196.1,113.9,195.8,114.1,195.4,114.1z"/>
				</g>
			</g>
			<g>
				<path class="st2" d="M76.9,136.3c-7.7,0-14,6.3-14,14c0,7.7,6.3,14,14,14c7.7,0,14-6.3,14-14C90.9,142.5,84.6,136.3,76.9,136.3z
					 M76.9,163.4c-7.2,0-13.1-5.9-13.1-13.1c0-7.2,5.9-13.1,13.1-13.1c7.2,0,13.1,5.9,13.1,13.1C90,157.5,84.1,163.4,76.9,163.4z"/>
				<path class="st2" d="M236.1,136.3c-7.7,0-14,6.3-14,14c0,7.7,6.3,14,14,14c7.7,0,14-6.3,14-14
					C250.1,142.5,243.8,136.3,236.1,136.3z M236.1,163.4c-7.2,0-13.1-5.9-13.1-13.1c0-7.2,5.9-13.1,13.1-13.1
					c7.2,0,13.1,5.9,13.1,13.1C249.2,157.5,243.3,163.4,236.1,163.4z"/>
				<path class="st2" d="M273.5,130c0,0-0.8-4.4-8.3-8.7c-10.2-5.7-52.5-16.2-52.5-16.2c-2.6-1.8-29.1-20.5-48.4-24.8
					c-18.6-4.2-35.4-3.7-51.6-3.3c-2.6,0.1-5.3,0.1-7.9,0.2c-19.5,0.4-31.3,3.2-35.1,4.1l-0.4,0.1c-5.8,1.4-21.5,23.6-22.1,26.5
					c-1.1,5-0.2,12.8,0,14.6c-0.8,2.2-5.2,15-1.4,23.1c3.6,7.7,9.6,9.3,11.3,9.6c2.2,8.9,10.2,15.4,19.8,15.4
					c8.3,0,15.4-5,18.6-12.1c0.2,0.1,0.3,0.2,0.5,0.2h121.6c3.3,7,10.3,11.9,18.5,11.9c6.1,0,11.5-2.7,15.2-7l13.5-1.4
					c0.7,0.1,3.3,0.2,5.7-1.8c3.2-2.6,4.8-7.6,4.9-14.8c0-1.2,0.1-2.2,0.1-3.1C275.9,138.2,273.5,130,273.5,130z M271.8,135.7
					c-2,0.4-7.6,1.3-10.6-0.7c-3-2-4.9-5.8-5.6-7.2h13.9c1.3,1.4,1.3,2.4,1.6,3.3C271.3,131.7,272.3,133.2,271.8,135.7z M49.3,114.3
					c4.3-0.1,8.6,0.2,9.1,0.7c0.2,1.2-1.5,7.3-5.2,9.3c-1.8,0.9-3.2,1.1-4.1,1c0.4-1.3,0.7-2.1,0.7-2.2c0.1-0.2,0.1-0.4,0.1-0.7
					C49.9,122.4,49.3,118.4,49.3,114.3z M76.9,168.1c-9.8,0-17.8-8-17.8-17.8c0-9.8,8-17.8,17.8-17.8c9.8,0,17.8,8,17.8,17.8
					C94.7,160.1,86.7,168.1,76.9,168.1z M236.1,168.1c-9.8,0-17.8-8-17.8-17.8c0-9.8,8-17.8,17.8-17.8s17.8,8,17.8,17.8
					C253.9,160.1,245.9,168.1,236.1,168.1z M273,142.5c-0.1,0.9-0.1,2-0.1,3.2c-0.1,7.9-2.2,11.3-3.9,12.8c-1.9,1.6-3.8,1.3-3.8,1.3
					c-0.1,0-0.2,0-0.4,0l-11.2,1.2c1.9-3.1,3.1-6.7,3.1-10.6c0-11.3-9.2-20.4-20.4-20.4c-11.3,0-20.4,9.2-20.4,20.4
					c0,2.1,0.4,4,1,5.9H152c-1.1-1.7-2.1-3.5-3.1-5.2c2.4,0,4.9,0,7.3,0c11.7,0,26.3-0.1,43.6-0.3c1.9,0,3.1,0,3.4,0
					c2.9,0,4-1.9,4.9-5.6c1.2-4.5,5.7-19.2,15.2-19.9c0.2,0,0.4-0.2,0.4-0.5c0-0.2-0.2-0.4-0.5-0.4c-10.1,0.7-14.8,15.9-16,20.5
					c-1,3.8-1.9,4.9-4.1,4.9c-0.3,0-1.5,0-3.4,0c-21.6,0.2-38.4,0.3-51.4,0.3c-10.6-19.8-11.9-38.4-11.9-38.6c0,0,0-0.1,0-0.1
					l58.3,2.2l-0.5,1.4c0,0.2,0,0.3,0.1,0.5c0.2,0.2,0.6,0.8,5.1,1c0.3,0,0.7,0,1,0c4,0,10-0.9,10.4-1.7c0.3-0.6,0.1-1.7,0-1.9
					c0-0.1,0-0.1-0.1-0.1c-0.1-0.2-3-4.6-7.2-6.3c-4.1-1.6-5.4-2-5.4-2c-0.2-0.1-0.5,0.1-0.5,0.3l-0.3,0.8c-4.2-3.3-8.6-6.4-13-9
					C172,89.2,162,85.9,132.3,84.8c-5.3-0.2-10.5-0.3-15.4-0.3c-16,0-35.2,1-36,5.7c-0.5,3.6-2,15.1-1.5,18.1
					c-3.1-0.2-12.9-0.5-16.7,1.1c-0.2,0.1-0.3,0.3-0.2,0.6c0.1,0.2,0.2,0.3,0.4,0.3c0.1,0,0.1,0,0.2,0c3.9-1.6,14.9-1.1,16.9-1
					c0,0,0,0,0,0l55.6,2.1c0,0.1,0,0.2,0,0.2c0,0.2,1.3,18.7,11.8,38.5c-23.5-0.1-33.7-0.5-35-0.9c-4.3-1.4-6-4.3-10.3-12
					c-0.6-1-1.2-2.2-1.9-3.4c-6-10.4-17.7-11.6-17.8-11.6c-0.3,0-0.5,0.2-0.5,0.4c0,0.2,0.2,0.5,0.4,0.5c0.1,0,11.3,1.2,17.1,11.2
					c0.7,1.2,1.3,2.3,1.9,3.4c4.5,7.9,6.2,10.8,10.8,12.4c1.7,0.6,17.2,0.9,35.7,1c0.9,1.7,1.9,3.5,3,5.2H96.4c0.6-1.9,1-3.9,1-5.9
					c0-11.3-9.2-20.4-20.4-20.4c-11.3,0-20.4,9.2-20.4,20.4c0,0.8,0.1,1.5,0.2,2.2c-2-0.6-5.9-2.4-8.5-7.9c-2.6-5.5-0.7-14,0.7-18.4
					c0.2,0,0.5,0.1,0.7,0.1c1.1,0,2.4-0.3,4.1-1.1c4-2.1,5.9-8.5,5.6-10.2c-0.2-1.3-5.3-1.5-9.9-1.5c0-1.7,0.1-3.5,0.5-4.9
					c1.3-5.7,16.8-23.7,20.1-24.5l0.4-0.1c3.8-0.9,15.4-3.6,34.6-4c2.6-0.1,5.2-0.1,7.9-0.2c16.1-0.5,32.7-0.9,51,3.2
					c19.3,4.3,47.4,24.3,47.6,24.5c0.1,0.1,0.3,0.2,0.3,0.2c40.7,9.9,52.6,16.3,52.6,16.3c1.3,0.4,2.8,1.7,4.2,3h-13.6
					c-0.1,0-0.3,0.1-0.4,0.2c-0.1,0.1-0.1,0.3-0.1,0.4c0.1,0.2,2.1,5.6,6.1,8.2c1.6,1.1,3.6,1.4,5.3,1.4c2,0,5-0.4,6.2-0.7
					C273.3,138.5,273.2,140.1,273,142.5z M80.4,108.4C80.4,108.4,80.4,108.4,80.4,108.4c0,0-0.1,0-0.1,0c-0.9-1.9,0.9-14.5,1.4-18
					c0.5-3.1,13.6-5,35.1-5c4.9,0,10.1,0.1,15.4,0.3c1.6,0.1,3.2,0.1,4.7,0.2c0,0,0,0-0.1,0.1c-2.6,7.2-1.7,20.7-1.4,24.6
					L80.4,108.4z M137.8,86.3c0-0.1,0-0.2,0-0.3c25.3,1.3,34.8,4.6,46.3,11.4c4.5,2.6,8.9,5.7,13.1,9.1l-2.1,6.4l-58.7-2.3
					C136.1,106.9,135.2,93.3,137.8,86.3z M198.5,105.5c0.6,0.2,2.1,0.7,4.9,1.9c3.7,1.5,6.4,5.4,6.8,5.9c0.1,0.4,0.1,1,0.1,1.1
					c-0.5,0.4-5.9,1.5-10.7,1.3c-3.1-0.1-4.1-0.4-4.4-0.6L198.5,105.5z"/>
				<path class="st2" d="M159.9,119.1c-1.2-0.6-3.6-0.8-5.5-0.8c-1.7,0-3.2,0.2-4.1,0.5c-2.4,0.9-3.2,3.1-3.2,3.2
					c0,0.1,0,0.3,0.1,0.4c0.1,0.1,0.2,0.2,0.3,0.2c0.1,0,6.3,0.4,10.6,0.4c3.8,0,4.2-0.3,4.3-0.7C162.9,120.9,161.5,120,159.9,119.1
					z M158,122.1c-3.4,0-8.2-0.3-9.9-0.4c0.4-0.6,1.1-1.6,2.4-2.1c0.8-0.3,2.2-0.4,3.8-0.4c2.2,0,4.2,0.3,5.1,0.7
					c1.9,1,2.2,1.6,2.1,1.9C161.3,121.9,160.6,122.1,158,122.1z"/>
				<path class="st2" d="M87.3,118.8c0.1,0,6.3,0.4,10.6,0.4c3.8,0,4.2-0.3,4.3-0.7c0.5-1.4-0.9-2.3-2.5-3.1
					c-1.2-0.6-3.6-0.8-5.5-0.8c-1.7,0-3.2,0.2-4.1,0.5c-2.4,0.9-3.2,3.1-3.2,3.2c0,0.1,0,0.3,0,0.4
					C87.1,118.7,87.2,118.7,87.3,118.8z M90.5,115.8c0.8-0.3,2.2-0.4,3.8-0.4c2.2,0,4.2,0.3,5.1,0.7c1.9,1,2.2,1.6,2.1,1.9
					c-0.2,0.1-0.9,0.2-3.5,0.2c-3.4,0-8.2-0.3-9.9-0.4C88.4,117.3,89.1,116.3,90.5,115.8z"/>
			</g>
		</g>
	</g>
</g>
</svg>
