<?xml version="1.0" encoding="utf-8"?>
<!-- Generator: Adobe Illustrator 22.1.0, SVG Export Plug-In . SVG Version: 6.00 Build 0)  -->
<svg version="1.1" id="Layer_1" xmlns="http://www.w3.org/2000/svg" xmlns:xlink="http://www.w3.org/1999/xlink" x="0px" y="0px"
	 width="320px" height="240px" viewBox="0 0 320 240" style="enable-background:new 0 0 320 240;" xml:space="preserve">
<style type="text/css">
	.st0{fill:#FFFFFF;}
	.st1{fill:#E5E5E5;}
	.st2{fill:#000;}
</style>
<g>
	<path class="st0" d="M305.3,139.2c-0.1-0.3-0.1-2.1-0.2-3.6c-0.5-10.6-1.3-16.6-4.1-18c-9.8-4.9-64.3-8.8-69-9.1
		c-3-1.4-34.3-16.1-52.9-21.2c-19.5-5.4-45.6-4.6-64.6-2.2c-18.2,2.4-27.8,5.6-37.7,10.4c-5.9,2.9-14.2,6.4-26,10.8
		c-4.4,0.4-24.2,5.4-27.6,8.8c-3.4,3.4-2.5,11.4-2.2,13.3c-0.7,2.6-5.7,13-1.9,21.2c3.8,8.2,22.5,10.1,27.5,10.1
		c3.4,6.5,10.1,11.1,18,11.1c6.7,0,12.6-3.3,16.3-8.3h161.8c0.1,0,0.2-0.1,0.3-0.1c3.7,5.1,9.6,8.4,16.4,8.4
		c6.6,0,12.5-3.2,16.2-8.1c0.9,0.1,2.7,0.2,5.1,0.2c3.2,0,7.5-0.2,11.8-1.4c4.7-1.3,9.4-5.6,11.9-11
		C306.4,146.2,306.7,142.1,305.3,139.2z"/>
	<g>
		<g>
			<g>
				<path class="st1" d="M297.2,139.2c-1,0-2.4-0.3-4.1-0.8c-5-1.5-3.6-12-3.6-13.2c0-0.2,0.1-0.5,0.2-0.6c0.2-0.2,0.4-0.3,0.6-0.3
					h7.3c0.4,0,0.7,0.3,0.8,0.6l1.3,12.2c0,0.3,0,0.8-0.4,1.3C299,139,298.3,139.2,297.2,139.2z"/>
			</g>
			<g>
				<path class="st1" d="M26.3,132.5c-2.8,0-4.9-0.7-5-0.7c-0.5-0.1-0.7-0.6-0.6-1.1s0.7-10.4,0.7-10.9c0-0.5,0.4-0.9,0.9-0.9
					c16.2-0.3,16.4,1.1,16.6,1.8c0.3,1.7-2,8.5-7.1,10.7C30,132.3,28,132.5,26.3,132.5z"/>
			</g>
			<g>
				<path class="st1" d="M209.1,118.8L209.1,118.8l-132.8-2.3c-0.2,0-0.4-0.2-0.4-0.4c0-0.2-0.1-4.2,3.4-8c0.6-0.7,1.2-1.4,1.8-2.1
					c6.8-8,20.2-16,66.1-16c13.7,0,21.2,1.4,28.4,3.4c8.3,2.4,33.2,12.2,37,15.2c0.1,0.1,0.2,0.3,0.1,0.5l-3,9.4
					C209.5,118.7,209.3,118.8,209.1,118.8z"/>
			</g>
		</g>
		<g>
			<path class="st2" d="M64.7,136c-7.9,0-14.4,6.5-14.4,14.4s6.4,14.4,14.4,14.4c7.9,0,14.4-6.4,14.4-14.4S72.6,136,64.7,136z
				 M64.7,163c-7,0-12.7-5.7-12.7-12.7s5.7-12.7,12.7-12.7c6.9,0,12.7,5.7,12.7,12.7S71.7,163,64.7,163z"/>
			<path class="st2" d="M259.6,136c-7.9,0-14.4,6.5-14.4,14.4s6.4,14.4,14.4,14.4c8,0,14.4-6.5,14.4-14.4S267.6,136,259.6,136z
				 M259.6,163c-7,0-12.7-5.7-12.7-12.7s5.7-12.7,12.7-12.7c7,0,12.7,5.7,12.7,12.7S266.6,163,259.6,163z"/>
			<path class="st2" d="M305.3,139.2c-0.1-0.3-0.1-2.1-0.2-3.6c-0.5-10.6-1.3-16.6-4.1-18c-9.8-4.9-64.3-8.8-69-9.1
				c-3-1.4-34.3-16.1-52.9-21.2c-19.5-5.4-45.6-4.6-64.6-2.2c-18.2,2.4-27.8,5.6-37.7,10.4c-5.9,2.9-14.2,6.4-26,10.8
				c-4.4,0.4-24.2,5.4-27.6,8.8c-3.4,3.4-2.5,11.4-2.2,13.3c-0.7,2.6-5.7,13-1.9,21.2c3.8,8.2,22.5,10.1,27.5,10.1
				c3.4,6.5,10.1,11.1,18,11.1c6.7,0,12.6-3.3,16.3-8.3h161.8c0.1,0,0.2-0.1,0.3-0.1c3.7,5.1,9.6,8.4,16.4,8.4
				c6.6,0,12.5-3.2,16.2-8.1c0.9,0.1,2.7,0.2,5.1,0.2c3.2,0,7.5-0.2,11.8-1.4c4.7-1.3,9.4-5.6,11.9-11
				C306.4,146.2,306.7,142.1,305.3,139.2z M23.8,120.2c6.5,0,13.1,0.3,13.8,0.8c0.2,1.1-1.8,7.2-6.3,9.2c-3.2,1.4-6.6,0.9-8.4,0.6
				c0.5-1.1,0.8-1.8,0.8-1.9c0-0.2,0-0.4,0-0.6C23.5,126.6,23.2,123,23.8,120.2z M64.7,168.1c-7,0-13-4.1-15.9-10c0,0,0,0,0,0
				c0-0.1-0.1-0.1-0.1-0.2c-1.1-2.3-1.8-4.9-1.8-7.6c0-9.8,8-17.8,17.8-17.8s17.8,8,17.8,17.8C82.5,160.1,74.5,168.1,64.7,168.1z
				 M259.6,168.1c-9.8,0-17.8-8-17.8-17.8c0-9.8,8-17.8,17.8-17.8c9.8,0,17.8,8,17.8,17.8C277.4,160.1,269.4,168.1,259.6,168.1z
				 M302,149.3c-2.2,4.8-6.2,8.5-10.2,9.6c-5.6,1.5-11.6,1.4-14.5,1.2c1.6-2.9,2.6-6.2,2.6-9.7c0-11.2-9.1-20.4-20.4-20.4
				c-11.2,0-20.4,9.2-20.4,20.4c0,3.4,0.9,6.6,2.5,9.5h-77.9c-1.6-1.6-3.2-3.3-4.6-5.1c19.9,0,42.4-0.1,63.4-0.3c2.1,0,3.4,0,3.6,0
				c2.9,0,3.9-1.9,4.9-5.6c1.7-6.6,8.6-23.6,19.8-23.6c0.2,0,0.4-0.2,0.4-0.4c0-0.2-0.2-0.4-0.4-0.4c-14.2,0-20.5,24-20.6,24.2
				c-1,3.8-1.9,4.9-4.1,4.9c-0.3,0-1.5,0-3.6,0c-25.1,0.2-46.5,0.3-64,0.3c-11.3-15.3-14.9-35.8-14.9-36c0,0,0-0.1,0-0.1l64.9,1.1
				l-0.2,0.7c-0.1,0.1-0.1,0.2,0,0.3c0.1,0.1,0.2,0.2,0.3,0.2c0.1,0,0.9,0.2,5.2,0.3c0.1,0,0.3,0,0.4,0c4.3,0,7.1-2.1,7.2-2
				c0.1-0.1,0.2-0.2,0.2-0.4c0-0.1-0.2-1.4-0.6-3c2.3,0.7,11,3,16.7,3.9c0.2,0,0.3-0.2,0.5-0.4c0-0.2-0.2-0.5-0.4-0.5
				c-6.2-1-16-3.7-17.1-4c-0.7-2-1.8-4.1-3.7-4.8c-1.4-0.5-2.5-0.8-3.5-0.8c-0.6,0-1,0.1-1.2,0.2c-4.3-3.1-28.6-12.7-36.7-15
				c-7.2-2-14.7-3.4-28.4-3.4c-45.9,0-59.3,8-66.1,16c-0.6,0.7-1.2,1.4-1.8,2.1c-2.8,3.1-3.3,6.3-3.4,7.5c-7.8-0.2-21.8-1.4-22-1.4
				c-0.2,0-0.4,0.2-0.4,0.4c0,0.3,0.2,0.5,0.4,0.5c0.1,0,14.7,1.2,22.4,1.4l66.6,1.2c0,0.1,0,0.2,0,0.2c0,0.3,3.6,20.5,14.7,35.9
				c-33.9,0-53-0.3-54.9-1c-3.2-1-4.7-4.3-7-9.4c-1.3-2.8-2.7-6-4.8-9.6c-6-10.4-22.7-11.6-22.8-11.6c-0.3,0-0.5,0.2-0.5,0.4
				c0,0.3,0.2,0.5,0.4,0.5c0.1,0,16.3,1.2,22.1,11.2c2.1,3.6,3.5,6.7,4.8,9.5c2.4,5.3,4,8.7,7.5,9.9c2.3,0.8,24.7,1,53.3,1
				c0.8,0,1.7,0,2.5,0c1.4,1.8,2.8,3.5,4.4,5.1H82.6c1.5-2.9,2.5-6.1,2.5-9.5c0-11.2-9.1-20.4-20.4-20.4c-11.2,0-20.4,9.2-20.4,20.4
				c0,2.4,0.5,4.7,1.3,6.8c-7.1,0.1-21.6-3.1-24.1-8.7c-2.5-5.5-0.4-12.9,1-16.8c0.9,0.2,2.2,0.5,3.9,0.5c1.6,0,3.5-0.3,5.2-1
				c4.8-2.1,7.1-8.5,6.8-10.2c-0.2-1.1-5.1-1.6-14.4-1.5c0.3-1,0.7-1.8,1.2-2.4c2.2-2.1,17.2-7.3,26.2-8.1c0.1,0,0.2-0.1,0.3-0.1
				c12-4.5,20.5-8.1,26.4-11c10-4.9,19.1-7.8,36.9-10.1c18.7-2.4,44.5-3.1,63.6,2.1c19.2,5.2,52.3,20.9,52.6,21.1
				c0.2,0,0.3,0.1,0.5,0.1c0.6,0.1,58.7,4.2,68.2,8.9c1.9,1,2.4,12.1,2.6,15.8c0.1,3.3,0.2,4,0.4,4.5
				C303.9,142.5,303.6,145.9,302,149.3z M143.9,91.3c0.1-0.2-0.1-0.4-0.3-0.5c1.2,0,2.3,0,3.5,0c13.6,0,21.1,1.4,28.2,3.4
				c8.8,2.6,32,11.8,36.3,14.8l-2.3,7.3l-0.5,1.5l-65.2-1.1C143.3,112.9,142.4,98.8,143.9,91.3z M142.8,116.7l-66-1.1
				c0.2-0.7,0.8-4.3,3.2-7c0.6-0.6,1.2-1.4,1.8-2.1c6.4-7.7,19.2-15.2,61.5-15.6c-0.1,0.1-0.2,0.2-0.2,0.3
				C141.6,98.6,142.5,112.7,142.8,116.7z M209.6,118.5l3-9.4c0,0,0,0,0,0c0.1-0.1,0.4-0.2,0.9-0.2c0.9,0,1.9,0.3,3.2,0.8
				c2.9,1.2,3.8,6.6,4,7.8c-0.7,0.5-3.3,1.9-6.9,1.8c-2.6,0-3.9-0.1-4.5-0.2l0.2-0.5C209.6,118.5,209.6,118.5,209.6,118.5z"/>
			<path class="st2" d="M297.6,123.9h-7.3c-0.1,0-0.2,0-0.3,0.1c-0.1,0.1-0.1,0.2-0.1,0.3c0,0.5-1.5,12.4,3.3,13.8
				c1.7,0.4,3,0.7,4,0.7c0.9,0,1.6-0.2,1.8-0.5c0.3-0.4,0.3-0.7,0.3-0.9l-1.3-13.2C298,124,297.8,123.9,297.6,123.9z M297.3,137.9
				c-0.9,0-2.2-0.2-3.7-0.7c-3.7-1.1-2.5-10.4-2.7-12.5l6.6-0.1l1.2,12.8C298.6,137.6,298.3,137.9,297.3,137.9z"/>
			<path class="st2" d="M169.3,125.2c-1.2-0.6-3.6-0.8-5.5-0.8c-1.7,0-3.2,0.2-4.1,0.5c-2.4,0.9-3.2,3.1-3.2,3.2
				c-0.1,0.1-0.1,0.3,0,0.4c0,0.1,0.2,0.2,0.3,0.2c0.1,0,6.3,0.4,10.6,0.4c3.7,0,4.1-0.3,4.4-0.8C172.3,127,170.9,126,169.3,125.2z
				 M167.4,128.3c-3.4,0-8.2-0.3-9.9-0.4c0.3-0.6,1.1-1.6,2.4-2c0.8-0.2,2.2-0.4,3.8-0.4c2.2,0,4.2,0.3,5.1,0.7
				c1.9,1,2.2,1.5,2.1,1.9C170.7,128.1,170,128.3,167.4,128.3z"/>
			<path class="st2" d="M95.8,127.6c0.1,0,6.3,0.4,10.6,0.4c3.8,0,4.2-0.3,4.4-0.8c0.5-1.3-0.9-2.3-2.5-3.1
				c-1.2-0.6-3.6-0.8-5.5-0.8c-1.7,0-3.2,0.2-4.1,0.5c-2.4,0.9-3.2,3.1-3.2,3.2c-0.1,0.1-0.1,0.3,0,0.4
				C95.5,127.5,95.7,127.6,95.8,127.6z M98.9,124.7c0.8-0.2,2.2-0.4,3.8-0.4c2.2,0,4.2,0.3,5.1,0.7c1.9,1,2.2,1.5,2.1,1.9
				c-0.2,0-0.9,0.2-3.5,0.2c-3.4,0-8.2-0.3-9.9-0.4C96.9,126.1,97.7,125.1,98.9,124.7z"/>
		</g>
	</g>
</g>
</svg>
