<?xml version="1.0" encoding="utf-8"?>
<!-- Generator: Adobe Illustrator 22.1.0, SVG Export Plug-In . SVG Version: 6.00 Build 0)  -->
<svg version="1.1" id="Layer_1" xmlns="http://www.w3.org/2000/svg" xmlns:xlink="http://www.w3.org/1999/xlink" x="0px" y="0px"
	 width="320px" height="240px" viewBox="0 0 320 240" style="enable-background:new 0 0 320 240;" xml:space="preserve">
<style type="text/css">
	.st0{fill:#E5E5E5;}
	.st1{fill:#000;}
</style>
<g>
	<g>
		<path class="st0" d="M35,126.4c-2,0-3.1-0.6-3.2-0.6c-0.4-0.2-0.6-0.8-0.3-1.2c0.2-0.4,0.8-10.4,0.8-10.9c0-0.5,0.4-0.9,0.9-0.9
			c13.6-0.3,13.8,1.1,14,1.8c0.3,1.7-2,8.5-7.1,10.7C38,126.1,36.3,126.4,35,126.4z"/>
	</g>
	<g>
		<path class="st0" d="M281.3,124.1c-2.4,0-5-0.4-6.9-1.6c-4.8-3.1-6.5-6.6-6.5-6.9c-0.1-0.3,0-0.5,0.2-0.8c0.2-0.2,0.4-0.3,0.7-0.3
			l14.7,0.3c0.5,0,0.9,0.4,0.9,0.9c0,0.5,4.3,6,4.5,6.5c0.1,0.5-0.1,0.9-0.6,1.1C287.9,123.3,284.8,124.1,281.3,124.1z"/>
	</g>
	<g>
		<g>
			<path class="st0" d="M210.9,109.5C210.9,109.5,210.9,109.5,210.9,109.5l-87.5-1.8c-0.3,0-0.5-0.1-0.7-0.3
				c-0.2-0.2-0.2-0.4-0.2-0.7l4.4-28.5c0.1-0.4,0.4-0.7,0.9-0.7c2.4,0,4.4-0.1,6.3-0.1c5.9-0.1,11.9-0.1,21.1,0.3
				c3.5,0.2,6.6,0.3,9.4,0.4c18.3,0.8,23.2,1,34.7,7.8c5.3,3.1,15.1,11.2,15.5,11.6c0.3,0.2,0.4,0.6,0.3,0.9l-3.2,10.4
				C211.6,109.2,211.3,109.5,210.9,109.5z"/>
		</g>
	</g>
</g>
<g>
	<path class="st1" d="M237.2,110.5C237.2,110.5,237.2,110.5,237.2,110.5l-16.9-1.9c-0.2,0-0.4-0.2-0.4-0.5c0-0.2,0.3-0.4,0.5-0.4
		l16.8,1.9c0.2,0,0.4,0.2,0.4,0.5C237.6,110.4,237.4,110.5,237.2,110.5z"/>
</g>
<g>
	<path class="st1" d="M83.3,170.7c-11.3,0-20.4-9.2-20.4-20.4c0-11.3,9.2-20.4,20.4-20.4s20.4,9.2,20.4,20.4
		C103.8,161.5,94.6,170.7,83.3,170.7z M83.3,132.4c-9.8,0-17.8,8-17.8,17.8c0,9.8,8,17.8,17.8,17.8s17.8-8,17.8-17.8
		S93.2,132.4,83.3,132.4z"/>
</g>
<g>
	<path class="st1" d="M83.3,164.3c-7.7,0-14-6.3-14-14c0-7.7,6.3-14,14-14s14,6.3,14,14C97.3,158,91,164.3,83.3,164.3z M83.3,137.1
		c-7.2,0-13.1,5.9-13.1,13.1c0,7.2,5.9,13.1,13.1,13.1c7.2,0,13.1-5.9,13.1-13.1C96.4,143,90.6,137.1,83.3,137.1z"/>
</g>
<g>
	<path class="st1" d="M252.6,164.3c-7.7,0-14-6.3-14-14c0-7.7,6.3-14,14-14c7.7,0,14,6.3,14,14C266.5,158,260.3,164.3,252.6,164.3z
		 M252.6,137.1c-7.2,0-13.1,5.9-13.1,13.1c0,7.2,5.9,13.1,13.1,13.1c7.2,0,13.1-5.9,13.1-13.1C265.7,143,259.8,137.1,252.6,137.1z"
		/>
</g>
<g>
	<path class="st1" d="M252.6,170.7c-11.3,0-20.4-9.2-20.4-20.4c0-11.3,9.2-20.4,20.4-20.4c11.3,0,20.4,9.2,20.4,20.4
		C273,161.5,263.8,170.7,252.6,170.7z M252.6,132.4c-9.8,0-17.8,8-17.8,17.8c0,9.8,8,17.8,17.8,17.8c9.8,0,17.8-8,17.8-17.8
		S262.4,132.4,252.6,132.4z"/>
</g>
<g>
	<path class="st1" d="M234.6,158.8H102c-0.7,0-1.3-0.6-1.3-1.3c0-0.7,0.6-1.3,1.3-1.3h132.6c0.7,0,1.3,0.6,1.3,1.3
		C235.9,158.2,235.3,158.8,234.6,158.8z"/>
</g>
<g>
	<path class="st1" d="M34.9,125.9c-1.8,0-2.9-0.6-3-0.6c-0.2-0.1-0.3-0.4-0.2-0.6c0.1-0.2,0.4-0.3,0.6-0.2c0,0,2.7,1.4,7-0.6
		c4.5-2,6.5-8.1,6.3-9.2c-0.6-0.6-7-0.9-12.7-0.7c-0.2,0.1-0.4-0.2-0.4-0.4c0-0.2,0.2-0.4,0.4-0.4c6-0.1,13.3,0,13.5,1.4
		c0.3,1.7-2,8.1-6.8,10.2C37.8,125.7,36.2,125.9,34.9,125.9z"/>
</g>
<g>
	<path class="st1" d="M175.2,157.9c-0.1,0-0.3-0.1-0.4-0.2c-14.7-22.5-16.3-49.4-16.3-49.7c-0.1-0.8-2.4-20.9,0.7-29.2
		c0.1-0.2,0.3-0.3,0.6-0.3c0.2,0.1,0.3,0.3,0.3,0.6c-3,8.1-0.6,28.6-0.6,28.8c0,0.3,1.6,27,16.1,49.3c0.1,0.2,0.1,0.5-0.1,0.6
		C175.4,157.9,175.3,157.9,175.2,157.9z"/>
</g>
<g>
	<path class="st1" d="M281.3,123.7c-2.3,0-4.8-0.4-6.7-1.6c-4.7-3-6.3-6.3-6.4-6.6c0-0.1,0-0.3,0.1-0.4c0.1-0.1,0.2-0.2,0.4-0.2
		l15.7,0.3c0.2,0,0.4,0.2,0.4,0.4s-0.2,0.4-0.4,0.4c0,0,0,0,0,0l-15.1-0.2c0.5,1.6,2.2,3.2,5.8,5.5c4.4,2.8,12.6,0.6,12.7,0.6
		c0.2-0.1,0.5,0.1,0.5,0.3c0.1,0.2-0.1,0.5-0.3,0.5C287.8,122.9,284.8,123.7,281.3,123.7z"/>
</g>
<g>
	<path class="st1" d="M179.1,117c-4.3,0-10.5-0.4-10.6-0.4c-0.1,0-0.3-0.1-0.3-0.2c-0.1-0.1-0.1-0.3-0.1-0.4c0-0.1,0.8-2.3,3.2-3.2
		c0.9-0.3,2.4-0.5,4.1-0.5c1.9,0,4.3,0.2,5.5,0.8c1.6,0.8,3,1.8,2.5,3.1C183.3,116.7,182.9,117,179.1,117z M169.2,115.8
		c1.7,0.1,6.5,0.4,9.9,0.4c2.6,0,3.3-0.2,3.5-0.2c0.1-0.4-0.2-0.9-2.1-1.9c-0.9-0.4-2.9-0.7-5.1-0.7c-1.6,0-3,0.2-3.8,0.4
		C170.3,114.1,169.6,115.1,169.2,115.8z"/>
</g>
<g>
	<path class="st1" d="M138.3,117c-4.3,0-10.5-0.4-10.6-0.4c-0.1,0-0.3-0.1-0.3-0.2c-0.1-0.1-0.1-0.3,0-0.4c0-0.1,0.8-2.3,3.2-3.2
		c0.9-0.3,2.4-0.5,4.1-0.5c1.9,0,4.3,0.2,5.5,0.8c1.6,0.8,3,1.8,2.5,3.1C142.5,116.7,142.1,117,138.3,117z M128.5,115.8
		c1.7,0.1,6.5,0.4,9.9,0.4c2.6,0,3.3-0.2,3.5-0.2c0.1-0.4-0.2-0.9-2.1-1.9c-0.9-0.4-2.9-0.7-5.1-0.7c-1.6,0-3,0.2-3.8,0.4
		C129.6,114.1,128.8,115.1,128.5,115.8z"/>
</g>
<g>
	<path class="st1" d="M161.8,151c-22.9,0-41-0.2-43.2-1c-4.7-1.6-6.3-4.5-10.8-12.4c-0.6-1-1.2-2.2-1.9-3.4
		c-5.8-10-19-11.2-19.1-11.2c-0.2,0-0.4-0.2-0.4-0.5c0-0.2,0.2-0.4,0.5-0.4c0.1,0,13.8,1.2,19.8,11.6c0.7,1.2,1.3,2.3,1.9,3.4
		c4.4,7.7,6,10.5,10.3,12c1.7,0.6,16.3,1.4,95.1,0.7c2,0,3.2,0,3.5,0c2.2,0,3.1-1.1,4.1-4.9c0.2-0.7,4.6-17.4,17.4-20.9
		c0.2-0.1,0.5,0.1,0.5,0.3c0.1,0.2-0.1,0.5-0.3,0.5c-12.3,3.3-16.6,19.6-16.8,20.2c-1,3.7-2,5.6-4.9,5.6c-0.3,0-1.5,0-3.5,0
		C196.8,150.9,178.1,151,161.8,151z"/>
</g>
<g>
	<path class="st1" d="M215.4,112L215.4,112c-0.4,0-0.9,0-1.4-0.1c-3.8-0.7-4.2-1.1-4.2-1.6c0-0.2,0.1-0.4,0.2-0.5l3.7-12.7
		c0-0.1,0.1-0.3,0.3-0.3c0.1,0,0.1,0,0.3,0c0.4,0,1.7,0.2,4.9,1.5c3.6,1.4,3.2,5.6,2.5,7.6l0,0C221.6,105.8,220.7,112,215.4,112z
		 M210.8,110.1c0.3,0.2,1.2,0.5,3.4,0.9c0.4,0.1,0.8,0.1,1.2,0.1c4.5,0,5.3-5.3,5.3-5.5c0.1-0.3,1.7-5.1-1.9-6.6
		c-2.7-1.1-3.9-1.3-4.3-1.4L210.8,110.1z"/>
</g>
<g>
	<path class="st1" d="M277.9,158.9c-0.6,0-1,0-1.1-0.1l-6.3,0.1c0,0,0,0,0,0c-0.7,0-1.3-0.6-1.3-1.3c0-0.7,0.6-1.3,1.3-1.3l6.4,0
		c0.2,0,4.6,0.5,7.9-2.5c2.7-2.4,4.1-6.2,4.1-11.6c0-1,0.1-2.1,0.1-3.2c0.7-13.3-6.3-24.5-7.8-25c-2.6-0.9-8.7-3.4-20.8-5.9
		c-13.2-2.7-32.4-5.3-32.6-5.4c-0.2-0.1-0.5-0.2-0.6-0.3c-0.2-0.2-24.8-24.1-44.3-26.8c-10-1.3-35.7-2.4-58.5-2.4
		c-1.4,0-2.6,1.5-2.9,3.8c-0.9,6.3-3.2,18-4.5,24.1c-0.7,3.2-3.6,4.6-5.3,4.6c-5.4,0-13.8-0.3-23.6-0.6c-18.7-0.6-50.1-1.5-52.9,0.3
		c-1.4,2.5-1.2,12.5-0.7,18.1c0,0.3-0.1,0.6-0.2,0.9c-0.1,0.1-6,8.7-2.6,16.2c2.9,6.3,24.5,11.3,32.6,12.6c0.7,0.1,1.2,0.8,1.1,1.5
		c-0.1,0.7-0.8,1.2-1.5,1.1c-3.1-0.5-30.5-5.4-34.6-14.1c-3.7-8,1.2-16.5,2.5-18.4c-0.2-2.9-1-15.5,1.3-19.4
		c1.4-2.5,12.2-2.8,55.1-1.4c9.7,0.3,18.1,0.6,23.5,0.6c0.5,0,2.3-0.6,2.8-2.6c1.2-5.9,3.6-17.8,4.4-23.9c0.5-3.5,2.8-6,5.5-6
		c22.9,0,48.8,1.1,58.8,2.4c19.4,2.6,42.6,24.4,45.5,27.2c2.2,0.5,19.7,2.8,31.6,5.2c12.4,2.5,19.1,5.2,21.8,6.1
		c2.6,0.9,10.2,14.1,9.6,27.6c-0.1,1.1-0.1,2.1-0.1,3.1c-0.1,6.1-1.8,10.7-5.1,13.5C283.4,158.5,279.7,158.9,277.9,158.9z"/>
</g>
<g>
	<g>
		<path class="st1" d="M210.9,109.1C210.9,109.1,210.9,109.1,210.9,109.1l-87.5-1.8c-0.1,0-0.2-0.1-0.3-0.2
			c-0.1-0.1-0.1-0.2-0.1-0.3l4.4-28.5c0-0.2,0.2-0.4,0.4-0.4c2.4,0,4.4-0.1,6.3-0.1c2.1,0,4.1-0.1,6.5-0.1c4.2,0,8.7,0.1,14.6,0.4
			c3.5,0.2,6.6,0.3,9.4,0.4c18.2,0.8,23.1,1,34.5,7.8c5.3,3.1,15.3,11.5,15.4,11.5c0.1,0.1,0.2,0.3,0.1,0.5l-3.2,10.4
			C211.3,108.9,211.1,109.1,210.9,109.1z M123.9,106.4l86.7,1.8l3.1-9.8c-1.5-1.3-10.3-8.5-15.1-11.3c-11.2-6.6-16.1-6.9-34.1-7.7
			c-2.8-0.1-5.9-0.3-9.4-0.4c-5.9-0.3-10.4-0.4-14.5-0.4c-2.3,0-4.4,0-6.5,0.1c-1.8,0-3.7,0.1-5.9,0.1L123.9,106.4z"/>
	</g>
</g>
<g>
	<path class="st1" d="M111.9,103.8C111.9,103.8,111.9,103.8,111.9,103.8c-0.3,0-0.5-0.2-0.4-0.5L115,70c0.1-1.3,0.9-3.9,3.3-3.9
		c0.6,0,1.1,0.2,1.5,0.7c1.3,1.4,0.9,4.8,0.9,4.9l-1.1,15.8c0,0.2-0.2,0.5-0.5,0.4c-0.2,0-0.4-0.2-0.4-0.5l1.1-15.8
		c0.1-0.9,0.2-3.3-0.7-4.2c-0.2-0.3-0.5-0.4-0.9-0.4c-2.2,0-2.4,3-2.4,3.1l-3.6,33.3C112.3,103.6,112.2,103.8,111.9,103.8z"/>
</g>
</svg>
