<?xml version="1.0" encoding="utf-8"?>
<!-- Generator: Adobe Illustrator 22.1.0, SVG Export Plug-In . SVG Version: 6.00 Build 0)  -->
<svg version="1.1" id="Layer_1" xmlns="http://www.w3.org/2000/svg" xmlns:xlink="http://www.w3.org/1999/xlink" x="0px" y="0px"
	 width="320px" height="240px" viewBox="0 0 320 240" style="enable-background:new 0 0 320 240;" xml:space="preserve">
<style type="text/css">
	.st0{fill:#FFFFFF;}
	.st1{fill:#E5E5E5;}
	.st2{fill:#000;}
</style>
<g>
	<path class="st0" d="M286.1,126.4c-3.8-4.4-7-7-9.6-7.9c-5.8-1.9-55.3-12.4-59.9-13.4c-2.7-2-26.1-18.8-45-24
		c-18.5-5.1-43.8-2.8-66.2,0.1c-17.6,2.3-43.2,19.5-46.7,21.8c-3.4-0.1-15.8-0.3-19.2,3.1c-3.3,3.3-2.5,14-2.2,16.6
		c-1.3,2-6.2,10.5-2.5,18.4c3.9,8.3,21.2,13.3,23.6,14c2.2,8.9,10.2,15.5,19.8,15.5c8.3,0,15.5-5,18.7-12.2c0.2,0.1,0.4,0.3,0.7,0.3
		h126.3c3.3,7,10.3,11.9,18.5,11.9c8.2,0,15.3-4.9,18.5-11.9l15,0c0,0,0.3,0.1,0.8,0.1c1.1,0,3.1-0.3,5.1-1.9
		c3.2-2.6,4.8-7.6,4.9-14.8c0-1.2,0.1-2.2,0.1-3.1C287.2,134.7,291.3,132.3,286.1,126.4z"/>
	<g>
		<g>
			<g>
				<path class="st1" d="M279.3,134.2c-2.1,0-4.3-0.3-6-1.5c-4-2.6-8.1-8-8.2-8.2c-0.2-0.3-0.2-0.6-0.1-0.9c0.1-0.3,0.5-0.5,0.8-0.5
					h16.7c0.5,0,0.9,0.4,0.9,0.9c0,0.5,2.3,7.9,2.4,8.4c0.1,0.5-0.1,0.9-0.6,1.1C285,133.5,282.3,134.2,279.3,134.2z"/>
			</g>
			<g>
				<path class="st1" d="M40.4,126.4c-2,0-3.1-0.6-3.2-0.6c-0.4-0.2-0.6-0.8-0.3-1.2c0.2-0.4,0.8-10.4,0.8-10.9
					c0-0.5,0.4-0.9,0.9-0.9c13.6-0.3,13.8,1.1,14,1.8c0.3,1.7-2,8.5-7.1,10.7C43.4,126.1,41.7,126.4,40.4,126.4z"/>
			</g>
			<g>
				<path class="st1" d="M200.3,114.1C200.3,114.1,200.3,114.1,200.3,114.1l-114.7-3.8c-0.3,0-0.6-0.2-0.7-0.4
					c-0.1-0.2-3.4-6.1-0.1-10.7c3.3-4.7,23.5-13.3,51.8-13.9c30.1-0.7,39.4,3.6,52,11c4.6,2.7,9.1,5.9,13.5,9.4
					c0.2,0.2,0.4,0.5,0.3,0.8l-1.3,7C201.1,113.8,200.8,114.1,200.3,114.1z"/>
			</g>
		</g>
		<g>
			<path class="st2" d="M78.2,135.8c-8,0-14.4,6.5-14.4,14.4c0,8,6.5,14.4,14.4,14.4s14.4-6.5,14.4-14.4
				C92.7,142.3,86.2,135.8,78.2,135.8z M78.2,162.9c-7,0-12.7-5.7-12.7-12.7c0-7,5.7-12.7,12.7-12.7s12.7,5.7,12.7,12.7
				C90.9,157.3,85.2,162.9,78.2,162.9z"/>
			<path class="st2" d="M242.4,135.8c-8,0-14.4,6.5-14.4,14.4c0,8,6.5,14.4,14.4,14.4s14.4-6.5,14.4-14.4
				C256.8,142.3,250.3,135.8,242.4,135.8z M242.4,162.9c-7,0-12.7-5.7-12.7-12.7c0-7,5.7-12.7,12.7-12.7c7,0,12.7,5.7,12.7,12.7
				C255.1,157.3,249.4,162.9,242.4,162.9z"/>
			<path class="st2" d="M285.3,126.3c-1-3.4-6.2-7-8.8-7.8c-2.5-0.9-15-5.4-28.1-8.2c-14.4-3.1-29.5-4.7-31.8-5.2
				c-2.7-2-26.1-18.8-45-24c-18.5-5.1-43.8-2.8-66.2,0.1c-17.6,2.3-43.2,19.5-46.7,21.8c-3.4-0.1-15.8-0.3-19.2,3.1
				c-3.3,3.3-2.5,14-2.2,16.6c-1.3,2-6.2,10.5-2.5,18.4c3.9,8.3,21.2,13.3,23.6,14c2.2,8.9,10.2,15.5,19.8,15.5
				c8.3,0,15.5-5,18.7-12.2c0.2,0.1,0.4,0.3,0.7,0.3h126.3c3.3,7,10.3,11.9,18.5,11.9c8.2,0,15.3-4.9,18.5-11.9l15,0
				c0,0,0.3,0.1,0.8,0.1c1.1,0,3.1-0.3,5.1-1.9c3.2-2.6,4.8-7.6,4.9-14.8c0-1.2,0.1-2.2,0.1-3.1
				C287.2,134.7,287.1,132.5,285.3,126.3z M282.6,127l1.3,5.5c0,0-7.2,0.9-9.9-0.8c-3-2-6.1-5.7-7.3-7.2h13.9
				C281.6,125.4,282.6,127,282.6,127z M39.8,114c5.3-0.1,10.9,0.2,11.4,0.7c0.2,1.1-1.8,7.2-6.3,9.2c-2.6,1.1-4.5,1.1-5.7,0.9
				c0.4-0.6,0.6-1,0.6-1.1c0.2-0.3,0.3-0.6,0.2-0.9C39.7,120.5,39.6,117,39.8,114z M78.2,168.1c-9.8,0-17.8-8-17.8-17.8
				c0-9.8,8-17.8,17.8-17.8c9.8,0,17.8,8,17.8,17.8C96.1,160.1,88.1,168.1,78.2,168.1z M242.4,168.1c-9.8,0-17.8-8-17.8-17.8
				c0-9.8,8-17.8,17.8-17.8c9.8,0,17.8,8,17.8,17.8C260.2,160.1,252.2,168.1,242.4,168.1z M284.3,139c-0.1,0.9-0.1,2-0.1,3.2
				c-0.1,7.9-2.2,11.3-3.9,12.8c-1.9,1.6-3.8,1.3-4.1,1.3h-14.3c0.6-1.9,1-3.9,1-5.9c0-11.3-9.2-20.4-20.4-20.4
				c-11.3,0-20.4,9.2-20.4,20.4c0,2.1,0.4,4,1,5.9H156c-1.1-1.7-2.1-3.5-3.1-5.2c0.8,0,1.7,0,2.5,0c13.7,0,30.5-0.1,50.5-0.3
				c2,0,3.2,0,3.5,0c2.9,0,4-1.9,4.9-5.6c1-3.8,5-16.6,15.3-19.9c0.2-0.1,0.4-0.3,0.3-0.6c-0.1-0.2-0.3-0.4-0.5-0.3
				c-10.7,3.4-14.9,16.6-15.9,20.5c-1,3.8-1.9,4.9-4.1,4.9c-0.3,0-1.5,0-3.5,0c-23,0.2-40.4,0.3-53.5,0.3
				c-10.2-19-11.8-36.7-11.9-38.4l59.4,2l-0.3,1.8h0c0,0.1,0,0.2,0,0.3c0.1,0.2,0.3,0.6,5.1,0.8c0.2,0,0.4,0,0.7,0
				c5,0,6.2-1.9,6.4-2.3c0,0,0-0.1,0-0.1l12.7,2.3c0,0,0.1,0,0.1,0c0.2,0,0.4-0.2,0.4-0.4c0-0.2-0.1-0.5-0.4-0.5l-12.8-2.3
				c0-0.4-0.1-0.7-0.1-0.8c0-0.2-0.6-5-4.9-6.7c-2.7-1.1-4-1.3-4.6-1.3c-0.3,0-0.4,0-0.6,0.1c-0.1,0.1-0.2,0.2-0.2,0.3l-0.2,0.8
				c-4.3-3.4-8.7-6.4-13.1-9c-12.5-7.4-21.8-11.6-51.8-10.9c-28.2,0.6-48.2,9.2-51.5,13.8c-2.8,3.9-0.6,8.8,0,10l-21.4-1.1
				c0,0,0,0,0,0c-0.2,0-0.4,0.2-0.4,0.4c0,0.2,0.2,0.4,0.4,0.5l21.8,1.1c0,0,0,0,0,0c0.2,0,0.4-0.2,0.4-0.4l53.7,1.8
				c0.1,0.9,1.5,19,11.8,38.5c-29.4,0-36.5-0.6-37.6-0.9c-4.3-1.5-6-4.3-10.4-12c-0.6-1-1.2-2.1-1.9-3.4
				c-6-10.4-17.7-11.6-17.8-11.6c-0.3-0.1-0.5,0.2-0.5,0.4c0,0.2,0.2,0.5,0.4,0.5c0.1,0,11.3,1.2,17.1,11.2c0.7,1.2,1.3,2.3,1.9,3.3
				c4.5,7.9,6.2,10.8,10.8,12.4c1.9,0.6,15,1,38.4,1c0.9,1.7,1.9,3.5,3,5.2H97.7c0.6-1.9,1-3.9,1-5.9c0-11.3-9.2-20.4-20.4-20.4
				s-20.4,9.2-20.4,20.4c0,0.7,0.1,1.4,0.2,2.1c-4.4-1.3-17.8-5.8-20.8-12.2c-2.5-5.4-0.1-11.4,1.5-14.4c0.5,0.1,1,0.2,1.7,0.2
				c1.3,0,2.9-0.3,4.8-1.1c4.8-2.1,7.1-8.6,6.8-10.2c-0.3-1.3-6.5-1.5-12.2-1.5c0.2-2.3,0.7-4.3,1.6-5.1c2.1-2.1,11.9-2.5,17.6-2.3
				c0.3,0,0.6-0.1,0.8-0.2c0.3-0.2,28-19.3,45.9-21.6c14.5-1.9,44.6-5.8,65.1-0.2c19.2,5.2,44.1,23.5,44.3,23.7
				c0.1,0.1,0.3,0.2,0.5,0.2c0.3,0.1,16.9,1.9,32.4,5.3c12.9,2.8,25.1,7.3,27.5,8.1c0.9,0.3,2.1,1,3.9,2.5h-13.8
				c-0.2,0-0.3,0.1-0.4,0.2c-0.1,0.1-0.1,0.3,0,0.5c0.2,0.2,4.1,5.6,8.1,8.1c1.6,1.1,3.8,1.4,5.8,1.4c1.7,0,3.6-0.2,4.7-0.4
				C284.9,135.2,284.4,136.7,284.3,139z M85.9,109c-0.5-1-2.5-5.6-0.1-9.1c3.1-4.3,23.3-12.8,50.8-13.4c1.4,0,2.8,0,4.2-0.1
				c-2.5,7.5-1.5,20.9-1.2,24.3L85.9,109z M141.7,86.5c25.8-0.1,34.6,4,46.2,10.9c4.5,2.6,8.9,5.7,13.2,9.1l-1.1,6.4l-59.5-2
				C140.2,107.6,139.2,93.8,141.7,86.5z M202.4,105.3c0.5,0,1.6,0.2,4.2,1.2c3.8,1.5,4.4,5.9,4.4,6c0.1,0.4,0.1,1,0,1.3
				c0,0.1-1.1,2-6.3,1.8c-2.8-0.1-3.9-0.3-4.3-0.4L202.4,105.3z"/>
			<path class="st2" d="M163.6,118.7c-1.2-0.6-3.6-0.8-5.5-0.8c-1.7,0-3.2,0.2-4.1,0.5c-2.4,0.9-3.2,3.1-3.2,3.2
				c0,0.1,0,0.3,0.1,0.4c0.1,0.1,0.2,0.2,0.3,0.2c0.1,0,6.3,0.4,10.6,0.4c3.7,0,4.2-0.3,4.3-0.7
				C166.6,120.5,165.2,119.5,163.6,118.7z M161.7,121.6c-3.4,0-8.2-0.3-9.9-0.4c0.4-0.6,1.1-1.6,2.4-2.1c0.8-0.3,2.2-0.4,3.8-0.4
				c2.2,0,4.2,0.3,5.1,0.7c1.9,1,2.2,1.6,2.1,1.9C165.1,121.5,164.3,121.6,161.7,121.6z"/>
			<path class="st2" d="M96.7,122.1c0.1,0,6.3,0.4,10.6,0.4c3.7,0,4.2-0.3,4.3-0.7c0.5-1.4-0.9-2.3-2.5-3.1
				c-1.2-0.6-3.6-0.8-5.5-0.8c-1.7,0-3.2,0.2-4.1,0.5c-2.4,0.9-3.2,3.1-3.2,3.2c0,0.1,0,0.3,0,0.4C96.4,122,96.5,122.1,96.7,122.1z
				 M99.8,119.1c0.8-0.3,2.2-0.4,3.8-0.4c2.2,0,4.2,0.3,5.1,0.7c1.9,1,2.2,1.6,2.1,1.9c-0.2,0.1-0.9,0.2-3.5,0.2
				c-3.4,0-8.2-0.3-9.9-0.4C97.7,120.6,98.5,119.6,99.8,119.1z"/>
		</g>
	</g>
</g>
</svg>
