<?xml version="1.0" encoding="utf-8"?>
<!-- Generator: Adobe Illustrator 22.1.0, SVG Export Plug-In . SVG Version: 6.00 Build 0)  -->
<svg version="1.1" id="Layer_1" xmlns="http://www.w3.org/2000/svg" xmlns:xlink="http://www.w3.org/1999/xlink" x="0px" y="0px"
	 width="320px" height="240px" viewBox="0 0 320 240" style="enable-background:new 0 0 320 240;" xml:space="preserve">
<style type="text/css">
	.st0{fill:#FFFFFF;}
	.st1{fill:#E5E5E5;}
	.st2{fill:#000;}
</style>
<g>
	<path class="st0" d="M274.1,117.6c-3.6-4.2-4.3-6.7-6.8-7.6c-5.4-1.8-44.5-9.9-48.7-10.8c-2.6-2.5-22.6-21.3-40.5-25.5
		c-1-1.9-3.5-4.7-10.4-5.8c-2.6-0.4-68.6-2.7-80-1.6c-7.1,0.7-10,3.3-11.1,4.8c-0.1,0-0.2,0-0.3,0c-6.2,0.3-11.6,3.6-16.1,7.9
		c-0.1,0-0.3,0-0.4,0.1c-0.2,0.1-0.3,0.3-0.3,0.5c0,0,0,0,0,0.1c-7.2,7.2-12,16.9-14.2,21.3c-0.4,0.8-0.7,1.5-0.9,1.8
		c-2.2,3.8-1.4,15.8-1.2,18.6c-1.2,1.9-6,14-2.4,21.7c3.8,8.2,21.4,13.1,22.8,13.5c2.3,8.2,9.8,14.3,18.8,14.3
		c7.9,0,14.6-4.7,17.7-11.4h123.3c3.1,6.7,9.9,11.4,17.7,11.4c7.9,0,14.6-4.7,17.7-11.4l5.5,0c0.1,0,0.4,0,1,0c1.7,0,5.3-0.4,8.4-3
		c3.1-2.7,4.8-7.1,4.9-13c0-0.9,0.1-1.9,0.1-3C279.1,134.7,279.4,123.6,274.1,117.6z"/>
	<g>
		<g>
			<g>
				<path class="st1" d="M268.8,124.9c-2.3,0-4.7-0.4-6.6-1.5c-4.6-2.9-6.2-9.2-6.3-9.4c-0.1-0.3,0-0.5,0.2-0.7
					c0.2-0.2,0.5-0.3,0.7-0.3l14.5,0.2c0.5,0,0.8,0.4,0.8,0.9c0,0.5,3.7,8.6,3.8,9.1c0.1,0.4-0.1,0.9-0.6,1
					C275.1,124.1,272.1,124.9,268.8,124.9z"/>
			</g>
			<g>
				<path class="st1" d="M46.1,124.2c-1.9,0-3-0.6-3.1-0.6c-0.4-0.2-0.6-0.7-0.3-1.1c0.2-0.4,0.8-10,0.7-10.4c0-0.5,0.4-0.8,0.8-0.9
					c13-0.3,13.3,1.1,13.4,1.7c0.3,1.7-1.9,8.1-6.8,10.2C49,124,47.4,124.2,46.1,124.2z"/>
			</g>
			<g>
				<g>
					<path class="st1" d="M82.4,106.2C82.4,106.2,82.4,106.2,82.4,106.2L44.9,106c-0.5,0-0.8-0.4-0.8-0.8c0-0.5,0.8-0.8,0.8-0.8
						S61.1,80.1,61,79.7c-0.1-0.4,0.1-0.9,0.5-1c0.9-0.3,5.4-0.5,19.5-0.8c5.5-0.1,10.3-0.2,12.3-0.3c0.3,0,0.6,0.1,0.7,0.4
						c0.2,0.2,0.2,0.5,0.1,0.8l-11,27C83.1,106,82.8,106.2,82.4,106.2z"/>
				</g>
				<g>
					<path class="st1" d="M201.3,108.1C201.3,108.1,201.3,108.1,201.3,108.1l-107.9-1.7c-0.3,0-0.5-0.1-0.7-0.3
						c-0.2-0.2-0.2-0.5-0.1-0.7l8.6-27.3c0.1-0.3,0.4-0.6,0.8-0.6c1.5,0,3.5,0,5.9-0.1c5.3-0.1,12.5-0.1,19.8-0.1
						c10.4,0,18.1,0.1,23.6,0.4c2.9,0.1,5.5,0.3,7.9,0.4c17.6,0.8,19.8,0.9,31,7.6c5.1,3,14.4,10.8,14.8,11.1
						c0.3,0.2,0.4,0.6,0.3,0.9l-3.1,10C202,107.8,201.7,108.1,201.3,108.1z"/>
				</g>
			</g>
			<g>
				<path class="st1" d="M178.1,75.7c-0.4,0-0.7-0.2-0.8-0.6c-0.3-1.1-2-4.8-9.8-6c-2.5-0.4-69-2.6-79.7-1.6
					c-9,0.8-10.7,5.1-10.7,5.1c-0.2,0.4-0.6,0.7-1.1,0.5c-0.4-0.2-0.7-0.6-0.5-1.1c0.1-0.2,2-5.3,12.2-6.3c10.2-1,76,1,80.1,1.6
					c8.6,1.3,10.7,5.5,11.2,7.2c0.1,0.4-0.1,0.9-0.6,1C178.3,75.7,178.2,75.7,178.1,75.7z"/>
			</g>
		</g>
		<g>
			<path class="st2" d="M82.4,137.7c-7.4,0-13.4,6-13.4,13.4c0,7.4,6,13.4,13.4,13.4c7.4,0,13.4-6,13.4-13.4
				C95.8,143.7,89.8,137.7,82.4,137.7z M82.4,163.7c-6.9,0-12.6-5.6-12.6-12.6c0-6.9,5.6-12.6,12.6-12.6c6.9,0,12.6,5.6,12.6,12.6
				C95,158,89.3,163.7,82.4,163.7z"/>
			<path class="st2" d="M241.2,137.7c-7.4,0-13.4,6-13.4,13.4c0,7.4,6,13.4,13.4,13.4c7.4,0,13.4-6,13.4-13.4
				C254.6,143.7,248.6,137.7,241.2,137.7z M241.2,163.7c-6.9,0-12.6-5.6-12.6-12.6c0-6.9,5.6-12.6,12.6-12.6
				c6.9,0,12.6,5.6,12.6,12.6C253.8,158,248.1,163.7,241.2,163.7z"/>
			<path class="st2" d="M172.6,111.6c-1.1-0.6-3.5-0.8-5.3-0.8c-1.7,0-3.1,0.2-3.9,0.5c-2.3,0.8-3.1,3-3.1,3.1c0,0.1,0,0.3,0,0.4
				c0.1,0.1,0.2,0.2,0.3,0.2c0.1,0,6.1,0.4,10.1,0.4c3.6,0,4-0.3,4.1-0.7C175.5,113.3,174.2,112.4,172.6,111.6z M170.8,114.4
				c-3.3,0-7.8-0.3-9.5-0.3c0.3-0.6,1.1-1.6,2.3-2c0.7-0.3,2.1-0.4,3.6-0.4c2.1,0,4.1,0.3,4.9,0.7c1.9,1,2.1,1.5,2,1.9
				C174.1,114.3,173.3,114.4,170.8,114.4z"/>
			<path class="st2" d="M102.9,114.9c0.1,0,6.1,0.4,10.1,0.4c3.6,0,4-0.3,4.1-0.7c0.5-1.3-0.8-2.2-2.4-3c-1.1-0.6-3.5-0.8-5.3-0.8
				c-1.7,0-3.1,0.2-3.9,0.5c-2.3,0.8-3.1,3-3.1,3.1c0,0.1,0,0.3,0,0.4C102.7,114.8,102.8,114.8,102.9,114.9z M106,112
				c0.7-0.3,2.1-0.4,3.6-0.4c2.1,0,4.1,0.3,4.9,0.7c1.9,1,2.1,1.5,2,1.9c-0.2,0.1-0.9,0.2-3.4,0.2c-3.3,0-7.8-0.3-9.5-0.3
				C104,113.5,104.7,112.5,106,112z"/>
			<path class="st2" d="M274.1,117.6c-2.8-4.4-4.3-6.7-6.8-7.6c-2.4-0.8-12.7-4-23.3-6.3c-11.5-2.5-23.2-4-25.4-4.5
				c-2.6-2.5-22.6-21.3-40.5-25.5c-1-1.9-3.5-4.7-10.4-5.8c-2.6-0.4-68.6-2.7-80-1.6c-7.1,0.7-10,3.3-11.1,4.8c-0.1,0-0.2,0-0.3,0
				c-6.2,0.3-11.6,3.6-16.1,7.9c-0.1,0-0.3,0-0.4,0.1c-0.2,0.1-0.3,0.3-0.3,0.5c0,0,0,0,0,0.1c-7.2,7.2-12,16.9-14.2,21.3
				c-0.4,0.8-0.7,1.5-0.9,1.8c-2.2,3.8-1.4,15.8-1.2,18.6c-1.2,1.9-6,14-2.4,21.7c3.8,8.2,21.4,13.1,22.8,13.5
				c2.3,8.2,9.8,14.3,18.8,14.3c7.9,0,14.6-4.7,17.7-11.4h123.3c3.1,6.7,9.9,11.4,17.7,11.4c7.9,0,14.6-4.7,17.7-11.4l5.5,0
				c0.1,0,0.4,0,1,0c1.7,0,5.3-0.4,8.4-3c3.1-2.7,4.8-7.1,4.9-13c0-0.9,0.1-1.9,0.1-3C279.1,134.7,278.4,124.4,274.1,117.6z
				 M272.4,119.4c0.7,1.2,1.5,2.3,2.1,3.6c-1.8,0.4-8,1.6-11.6-0.7c-3.5-2.2-5.1-6.6-5.6-8.1l12,0.2
				C270.5,115.4,270.9,116.7,272.4,119.4z M87.8,67.1c10.7-1,77.3,1.2,79.8,1.6c5.8,0.9,8.3,3.1,9.4,4.8c-0.7-0.1-1.4-0.3-2.1-0.4
				c-18.1-2.4-76.4-2.9-97.2-2C79.1,69.6,81.9,67.6,87.8,67.1z M47.6,102c2.3-4.6,7.7-15.5,15.6-22.4c4.2-0.2,11.9-0.4,17.9-0.5
				c5-0.1,9.4-0.2,11.6-0.3L82.1,105l-35.8-0.2c0.1-0.2,0.2-0.5,0.3-0.7C46.8,103.6,47.2,102.9,47.6,102z M45.5,112.4
				c5.1-0.1,10.5,0.2,11,0.7c0.2,1.1-1.7,6.9-6,8.8c-2.2,1-3.9,1.1-5.1,0.9c0.1-0.3,0.2-0.5,0.2-0.5c0.2-0.2,0.3-0.5,0.2-0.8
				C45.6,119.6,45.4,115.9,45.5,112.4z M82.4,168.2c-9.4,0-17.1-7.7-17.1-17.1c0-9.4,7.7-17.1,17.1-17.1c9.4,0,17.1,7.7,17.1,17.1
				c0,2.1-0.4,4.1-1.1,6c-0.3,0.2-0.5,0.5-0.5,1c0,0.1,0.1,0.1,0.1,0.2C95.2,164.1,89.3,168.2,82.4,168.2z M241.2,168.2
				c-9.4,0-17.1-7.7-17.1-17.1c0-9.4,7.7-17.1,17.1-17.1c9.4,0,17.1,7.7,17.1,17.1C258.3,160.5,250.6,168.2,241.2,168.2z
				 M276.3,140.3c-0.1,1.1-0.1,2.1-0.1,3c-0.1,5.1-1.4,8.8-4,11.1c-3.2,2.8-7.4,2.4-7.6,2.4l-4.8,0c0.6-1.8,0.9-3.7,0.9-5.7
				c0-10.8-8.8-19.6-19.6-19.6c-10.8,0-19.6,8.8-19.6,19.6c0,2,0.4,3.9,0.9,5.7h-59.1c-1-1.6-2-3.3-2.8-5c12.2,0,26.7-0.1,43.6-0.3
				c1.9,0,3,0,3.3,0c2.8,0,3.8-1.8,4.7-5.4c0.2-0.7,4.3-16.2,16.1-19.4c0.2-0.1,0.4-0.3,0.3-0.5c-0.1-0.2-0.3-0.4-0.5-0.3
				c-12.2,3.3-16.5,19.3-16.7,20c-0.9,3.7-1.8,4.7-3.9,4.7c-0.3,0-1.4,0-3.3,0c-18.1,0.2-32.6,0.3-44.1,0.3
				c-10-19.7-11.5-42.6-11.5-44.2l52,0.8l-0.2,0.7c-0.1,0.1-0.2,0.3-0.2,0.5c0,0.4,0.4,0.9,4.1,1.5c0.4,0.1,0.9,0.1,1.3,0.1
				c2.7,0,4.2-1.6,5-3.2l15.8,1.8c0,0,0,0,0.1,0c0.2,0,0.4-0.2,0.4-0.4c0-0.2-0.1-0.4-0.4-0.5l-15.6-1.8c0.4-1.1,0.6-1.9,0.6-1.9
				c0.7-1.9,1.1-5.9-2.4-7.3c-3.1-1.2-4.2-1.4-4.7-1.4c-0.1,0-0.2,0-0.2,0c-0.1,0-0.2,0.1-0.3,0.3l0,0.2c-2.3-1.9-9.8-7.9-14-10.5
				c-11.1-6.6-13.4-6.7-30.8-7.5c-2.3-0.1-4.9-0.2-7.9-0.4c-5.5-0.3-13.2-0.4-23.6-0.4c-7.3,0-14.5,0.1-19.8,0.1
				c-2.4,0-4.4,0-5.9,0.1c-0.2,0-0.3,0.1-0.4,0.3L93,105.4c0,0.1,0,0.3,0.1,0.4c0.1,0.1,0.2,0.2,0.3,0.2l54.4,0.9
				c0.1,0.9,1.4,24.1,11.4,44.2c-33.7,0-41.6-0.5-42.7-0.9c-4.2-1.4-5.7-4.1-9.9-11.5c-0.6-1-1.2-2.1-1.8-3.2
				c-5.7-10-18.8-11.1-18.9-11.2c-0.2,0-0.4,0.2-0.5,0.4c0,0.2,0.2,0.4,0.4,0.5c0.1,0,12.8,1.2,18.3,10.7c0.7,1.2,1.3,2.2,1.8,3.2
				c4.3,7.5,5.9,10.4,10.4,11.9c1.9,0.6,15.6,1,40.1,1c1.1,0,2.2,0,3.3,0c0.9,1.7,1.8,3.3,2.8,5h-61.4c0.6-1.8,0.9-3.7,0.9-5.7
				c0-10.8-8.8-19.6-19.6-19.6c-10.8,0-19.6,8.8-19.6,19.6c0,0.9,0.1,1.7,0.3,2.6c-4.2-1.2-17.1-5.6-20-11.7
				c-2.7-5.8,0.5-14.8,1.9-18.2c0.3,0,0.7,0.1,1.1,0.1c1.2,0,2.8-0.2,4.6-1.1c4.6-2,6.8-8.2,6.5-9.8c-0.3-1.3-6.3-1.5-11.8-1.4
				c0.1-2.3,0.2-4.5,0.6-6l36.3,0.2c0,0,0,0,0,0c0.2,0,0.3-0.1,0.4-0.3l11-27c0.1-0.1,0-0.3,0-0.4c-0.1-0.1-0.2-0.2-0.4-0.2
				c-2,0.1-6.7,0.2-12.3,0.3c-7.2,0.2-13,0.3-16.8,0.4c3.6-2.9,7.6-4.9,12.1-5.1c19.2-1,79.8-0.5,98.2,1.9
				c18.7,2.5,42.2,25.4,42.5,25.7c0.2,0.2,0.4,0.3,0.6,0.3c0.2,0.1,13.5,1.9,26.2,4.6c10.3,2.2,20.3,5.4,22.6,6.2
				c0.5,0.2,1.2,0.5,2.1,1.1l-11.9-0.2c-0.1,0-0.3,0.1-0.3,0.2c-0.1,0.1-0.1,0.2-0.1,0.4c0.1,0.3,1.6,6.3,6.1,9.2
				c1.8,1.1,4.2,1.5,6.4,1.5c2.7,0,5.1-0.5,6-0.7C276.7,129.1,276.5,136.1,276.3,140.3z M149.2,79c0-0.1,0-0.2,0-0.3
				c0.7,0,1.3,0.1,2,0.1c2.9,0.2,5.5,0.3,7.9,0.4c17.6,0.8,19.5,0.9,30.5,7.4c4.4,2.6,12.4,9.1,14.2,10.6l-2.8,9.6l-52.3-0.8
				C148.2,102.5,146.7,86,149.2,79z M147.7,106L94,105.1l8.3-26.5c1.4,0,3.3,0,5.6,0c5.3,0,12.4-0.1,19.8-0.1
				c8.8,0,15.6,0.1,20.8,0.3c0,0,0,0,0,0C145.8,85.9,147.3,102.3,147.7,106z M201.7,107.4l3.1-10c0.1-0.2,0-0.3-0.1-0.4c0,0,0,0,0,0
				l0.1-0.2c0.4,0.1,1.6,0.3,4.2,1.3c3.5,1.4,1.9,6,1.9,6.3c0,0.2-0.8,5.3-5.1,5.3c-0.4,0-0.8,0-1.2-0.1c-2.2-0.4-3-0.7-3.3-0.8
				l0.4-1.2C201.6,107.4,201.7,107.4,201.7,107.4z"/>
		</g>
	</g>
</g>
</svg>
