<?xml version="1.0" encoding="utf-8"?>
<!-- Generator: Adobe Illustrator 22.1.0, SVG Export Plug-In . SVG Version: 6.00 Build 0)  -->
<svg version="1.1" id="Layer_1" xmlns="http://www.w3.org/2000/svg" xmlns:xlink="http://www.w3.org/1999/xlink" x="0px" y="0px"
	 width="320px" height="240px" viewBox="0 0 320 240" style="enable-background:new 0 0 320 240;" xml:space="preserve">
<style type="text/css">
	.st0{fill:#FFFFFF;}
	.st1{fill:#E5E5E5;}
	.st2{fill:#000;}
</style>
<g>
	<path class="st0" d="M283.9,126.6c-0.9-1-4.9-10.2-9.1-11.6c-4-1.3-37.1-13.1-40.9-14.7c-2.5-1.9-29.5-22.2-49.2-26.6
		c-1-2-3.6-5.8-10.5-5.9c-0.8,0-6.6-0.1-14.8-0.3C136.4,67,89.6,66.1,82,66.1c-7.7,0-10.9,3.1-12.1,4.9c-0.1,0-0.2,0-0.3,0
		c-20.5,1-31.7,32.7-31.9,33c-2.3,4-1.5,13.7-1.3,16c-1.1,2.2-6.3,13.7-2.5,21.8c4,8.6,18.2,13.7,19.7,14.1
		c2.4,8.5,10.2,14.9,19.6,14.9c8.2,0,15.3-4.9,18.5-11.9h134.1c3.3,7,10.3,11.9,18.5,11.9c8.2,0,15.2-4.9,18.5-11.8l14.9-0.1
		c0.1,0,3.1,0.5,5.9-1.8c3.2-2.6,4.8-7.6,4.9-14.8c0-1.2,0.1-2.2,0.1-3.1C289,134.7,288.9,132.3,283.9,126.6z"/>
	<g>
		<g>
			<g>
				<path class="st1" d="M39.4,122.9c-2,0-3.1-0.6-3.2-0.6c-0.4-0.2-0.6-0.8-0.3-1.2c0.2-0.4,0.8-10.4,0.8-10.9
					c0-0.5,0.4-0.9,0.9-0.9c13.6-0.3,13.8,1.1,14,1.8c0.3,1.7-2,8.5-7.1,10.7C42.5,122.6,40.8,122.9,39.4,122.9z"/>
			</g>
			<g>
				<path class="st1" d="M281.2,135.2c-2.3,0-5-0.4-7.1-1.7c-4.7-3-10.5-12.5-10.7-12.9c-0.2-0.3-0.2-0.6,0-0.9
					c0.2-0.3,0.4-0.4,0.8-0.4c0,0,0,0,0,0l16.4,0.3c0.5,0,0.9,0.4,0.9,0.9c0,0.5,6.2,12.5,6.3,13c0.1,0.5-0.2,0.9-0.6,1.1
					C286.9,134.6,284.3,135.2,281.2,135.2z"/>
			</g>
			<g>
				<path class="st1" d="M215.1,110.6C215.1,110.6,215.1,110.6,215.1,110.6l-163.2-3.3c-0.3,0-0.6-0.2-0.8-0.5
					c-0.1-0.3-0.1-0.7,0.1-0.9c0.7-0.9,9.2-22.4,15.4-26.4c2.2-1.4,11.3-1.9,18.5-2.1c10.6-0.2,30,0.3,46.4,0.8
					c5,0.2,9.8,0.2,14.5,0.3c22.3,0.3,41.6,0.6,54.7,9.1c5.2,3.4,14.3,10.3,17.8,13.1c0.3,0.2,0.4,0.6,0.3,1l-2.9,8.3
					C215.8,110.3,215.5,110.6,215.1,110.6z"/>
			</g>
		</g>
		<g>
			<path class="st2" d="M73.1,136.3c-7.7,0-14,6.3-14,14c0,7.7,6.3,14,14,14c7.7,0,14-6.3,14-14C87.1,142.6,80.9,136.3,73.1,136.3z
				 M73.1,163.4c-7.2,0-13.1-5.9-13.1-13.1c0-7.2,5.9-13.1,13.1-13.1c7.2,0,13.1,5.9,13.1,13.1C86.3,157.5,80.4,163.4,73.1,163.4z"
				/>
			<path class="st2" d="M244.3,136.3c-7.7,0-14,6.3-14,14c0,7.7,6.3,14,14,14c7.7,0,14-6.3,14-14C258.3,142.6,252,136.3,244.3,136.3
				z M244.3,163.4c-7.2,0-13.1-5.9-13.1-13.1c0-7.2,5.9-13.1,13.1-13.1s13.1,5.9,13.1,13.1C257.4,157.5,251.5,163.4,244.3,163.4z"/>
			<path class="st2" d="M179.5,115.2c-1.2-0.6-3.6-0.8-5.5-0.8c-1.7,0-3.2,0.2-4.1,0.5c-2.4,0.9-3.2,3.1-3.2,3.2c0,0.1,0,0.3,0,0.4
				c0.1,0.1,0.2,0.2,0.3,0.2c0.1,0,6.3,0.4,10.6,0.4c3.7,0,4.2-0.3,4.3-0.7C182.5,117,181.1,116,179.5,115.2z M177.6,118.1
				c-3.4,0-8.2-0.3-9.9-0.4c0.4-0.6,1.1-1.6,2.4-2.1c0.8-0.3,2.2-0.4,3.8-0.4c2.2,0,4.2,0.3,5.1,0.7c1.9,1,2.2,1.6,2.1,1.9
				C181,118,180.2,118.1,177.6,118.1z"/>
			<path class="st2" d="M112.6,118.6c0.1,0,6.3,0.4,10.6,0.4c3.7,0,4.2-0.3,4.3-0.7c0.5-1.3-0.9-2.3-2.5-3.1
				c-1.2-0.6-3.6-0.8-5.5-0.8c-1.7,0-3.2,0.2-4.1,0.5c-2.4,0.9-3.2,3.1-3.2,3.2c0,0.1,0,0.3,0.1,0.4
				C112.3,118.5,112.4,118.6,112.6,118.6z M115.7,115.6c0.8-0.3,2.2-0.4,3.8-0.4c2.2,0,4.2,0.3,5.1,0.7c1.9,1,2.2,1.6,2.1,1.9
				c-0.2,0.1-0.9,0.2-3.5,0.2c-3.4,0-8.2-0.3-9.9-0.4C113.6,117.1,114.4,116.1,115.7,115.6z"/>
			<path class="st2" d="M283.3,121.3c-0.9-1-4.6-4.3-8.6-6.3c-2.5-1.2-11.2-5.4-20.8-8.8c-8.9-3.2-19-5.5-20.2-5.9
				c-2.5-1.9-29.5-22.2-49.2-26.6c-1-2-3.6-5.8-10.5-5.9c-0.8,0-6.6-0.1-14.8-0.3C136.4,67,89.6,66.1,82,66.1
				c-7.7,0-10.9,3.1-12.1,4.9c-0.1,0-0.2,0-0.3,0c-20.5,1-31.7,32.7-31.9,33c-2.3,4-1.5,13.7-1.3,16c-1.1,2.2-6.3,13.7-2.5,21.8
				c4,8.6,18.2,13.7,19.7,14.1c2.4,8.5,10.2,14.9,19.6,14.9c8.2,0,15.3-4.9,18.5-11.9h134.1c3.3,7,10.3,11.9,18.5,11.9
				c8.2,0,15.2-4.9,18.5-11.8l14.9-0.1c0.1,0,3.1,0.5,5.9-1.8c3.2-2.6,4.8-7.6,4.9-14.8c0-1.2,0.1-2.2,0.1-3.1
				C289,134.7,288.4,127,283.3,121.3z M283.4,126.3c1.6,2.7,2.1,5.8,2.3,7.1c-2.3,0.4-7.5,1.1-10.8-1c-3.8-2.4-8.5-9.5-9.9-11.8
				l13.7,0.2C281.3,123.2,281.9,123.9,283.4,126.3z M82,66.9c7.6,0,54.4,0.9,77.3,1.4c8.3,0.2,14,0.3,14.8,0.3
				c5.8,0.1,8.3,2.9,9.4,4.8c-0.8-0.2-1.5-0.3-2.3-0.4c-19.6-2.6-90.3-2.9-110.2-2.1C72.4,69.3,75.5,66.9,82,66.9z M38.8,110.5
				c5.3-0.1,10.9,0.2,11.4,0.7c0.2,1.1-1.8,7.2-6.3,9.2c-2.3,1-4.1,1.1-5.3,1c0.2-0.4,0.3-0.7,0.3-0.7c0.1-0.2,0.2-0.5,0.1-0.7
				C38.9,118.1,38.6,114.1,38.8,110.5z M73.1,168.1c-9.8,0-17.8-8-17.8-17.8c0-9.8,8-17.8,17.8-17.8c9.8,0,17.8,8,17.8,17.8
				C91,160.1,83,168.1,73.1,168.1z M244.3,168.1c-9.8,0-17.8-8-17.8-17.8c0-9.8,8-17.8,17.8-17.8c9.8,0,17.8,8,17.8,17.8
				C262.1,160.1,254.1,168.1,244.3,168.1z M286.1,139c-0.1,0.9-0.1,2-0.1,3.2c-0.1,7.9-2.2,11.3-3.9,12.8c-1.9,1.6-3.8,1.3-4.1,1.3
				l-14.2,0c0.6-1.9,1-3.9,1-6c0-11.3-9.2-20.4-20.4-20.4c-11.3,0-20.4,9.2-20.4,20.4c0,2.1,0.4,4,1,5.9h-52.9
				c-1.1-1.7-2.1-3.5-3-5.2c13.1,0,27-0.1,40-0.3c2,0,3.2,0,3.5,0c2.9,0,4-1.9,4.9-5.6c0.2-0.7,4.5-16.9,16.8-20.2
				c0.2-0.1,0.4-0.3,0.3-0.5c-0.1-0.2-0.3-0.4-0.5-0.3c-12.8,3.4-17.2,20.2-17.4,20.9c-1,3.8-1.9,4.9-4.1,4.9c-0.3,0-1.5,0-3.5,0
				c-15.8,0.1-29.2,0.2-40.5,0.3c-9.4-18.1-11.5-36.8-11.9-41.1l58.1,1.1c-0.1,0.4-0.2,0.7-0.2,0.7c-0.1,0.3-0.1,0.9,0.2,1.3
				c0.6,0.7,2.1,1,5.6,1.1c0.2,0,0.5,0,0.7,0c4.4,0,6.3-1.5,6.7-2.3c0.1-0.2,0.1-0.8,0-1.6l19.9,5.7c0,0,0.1,0,0.1,0
				c0.2,0,0.4-0.1,0.4-0.3c0.1-0.2-0.1-0.5-0.3-0.5l-20.3-5.8c-0.2-1.1-0.4-2.4-0.7-4.1c0-0.1-1.5-5.6-6.2-5.6c-1,0-1.8,0.8-2.6,2.1
				c-3.7-2.9-12.4-9.5-17.5-12.8c-13-8.4-32.2-8.7-54.4-9c-4.7-0.1-9.5-0.1-14.5-0.3c-6.2-0.2-12.2-0.4-17.9-0.5
				c0-0.1,0-0.1-0.1-0.2c-0.2-0.1-0.5-0.1-0.6,0.1c0,0-0.1,0.1-0.1,0.1c-6.6-0.2-12.7-0.3-18-0.3c-2,0-8,0-9.7,0
				C78,78,69,78.5,66.9,79.9c-6.1,3.9-14.5,25.4-15.3,26.3c-0.1,0.1-0.1,0.3-0.1,0.5c0.1,0.2,0.2,0.2,0.4,0.2l103.7,2.1
				c0.3,4.1,2.4,22.9,11.8,41.1c-47.2,0.2-57.4-0.5-58.7-0.9c-4.9-1.6-6.8-4.5-12.3-15.3c-6.6-13-23.1-15.1-23.3-15.2
				c-0.2,0-0.5,0.1-0.5,0.4c0,0.2,0.1,0.5,0.4,0.5c0.2,0,16.2,2.1,22.6,14.7c5.6,11.1,7.6,14,12.8,15.8c2.2,0.7,21.1,1,45.2,1
				c4.6,0,9.4,0,14.3,0c0.9,1.7,1.9,3.5,3,5.2H92.6c0.6-1.9,1-3.9,1-5.9c0-11.3-9.2-20.4-20.4-20.4c-11.3,0-20.4,9.2-20.4,20.4
				c0,0.9,0.2,1.8,0.3,2.7c-4.3-1.3-13.7-5.8-16.7-12.3c-2.8-6,0.4-14.8,1.9-18.3c0.4,0.1,0.8,0.1,1.2,0.1c1.3,0,2.9-0.3,4.8-1.1
				c4.8-2.1,7.1-8.5,6.8-10.2c-0.3-1.3-6.5-1.5-12.2-1.5c0.2-1.8,0.5-3.4,1-4.4c3.5-6.1,13-30.9,29.7-31.7c20-1,92.2-0.5,111.2,2
				c19.6,2.6,51.1,26.6,51.4,26.9c0.1,0.1,0.2,0.1,0.3,0.2c0.6,0.3,11,2.6,20.2,5.9c9.7,3.5,18.2,7.2,21,8.9
				c0.8,0.5,2.2,1.2,3.7,2.4l-13.4-0.2c-0.1,0-0.3,0.1-0.4,0.2c-0.1,0.1-0.1,0.3,0,0.4c0.2,0.4,6,9.8,10.6,12.7
				c2,1.3,4.6,1.6,6.8,1.6c1.9,0,3.6-0.3,4.6-0.5C286.3,135.8,286.2,137.1,286.1,139z M113.3,79c5.8,0.1,11.9,0.3,18.3,0.5
				c5,0.2,9.8,0.2,14.5,0.3c3.6,0.1,7.1,0.1,10.5,0.2c-2.8,8.6-1,27.2-1,28c0,0,0,0,0,0l-54-1.1C102.4,93.5,111.4,81.4,113.3,79z
				 M100.7,107l-47.8-1c3-3.8,9.2-21.9,14.5-25.4c1.5-1,8-1.7,17.8-1.8c1.7,0,7.7,0,9.7,0c5.1,0,11,0.1,17.4,0.3
				C109.7,82.3,101.5,94,100.7,107C100.6,107,100.7,107,100.7,107z M156.4,108c0-0.2-1.8-19.6,1-27.9c17.2,0.5,32,1.9,42.5,8.7
				c5.1,3.3,13.8,9.9,17.5,12.8l-0.1,0.2c-1.2,2.4-2.1,5.6-2.6,7.5L156.4,108C156.4,108.1,156.4,108,156.4,108z M218.2,102
				c0.8-1.4,1.6-2.4,2.3-2.4c4,0,5.3,4.9,5.3,4.9c0.5,2.7,1,5.7,0.9,6.1c-0.2,0.4-1.7,1.8-5.9,1.8c-0.2,0-0.4,0-0.7,0
				c-1.9-0.1-4.4-0.2-4.9-0.8c-0.1-0.1-0.1-0.2-0.1-0.6c0.1-0.4,0.2-0.9,0.3-1.3L218.2,102z"/>
		</g>
	</g>
</g>
</svg>
