<?xml version="1.0" encoding="utf-8"?>
<!-- Generator: Adobe Illustrator 22.1.0, SVG Export Plug-In . SVG Version: 6.00 Build 0)  -->
<svg version="1.1" id="Layer_1" xmlns="http://www.w3.org/2000/svg" xmlns:xlink="http://www.w3.org/1999/xlink" x="0px" y="0px"
	 width="320px" height="240px" viewBox="0 0 320 240" style="enable-background:new 0 0 320 240;" xml:space="preserve">
<style type="text/css">
	.st0{fill:#FFFFFF;}
	.st1{fill:#E5E5E5;}
	.st2{fill:#000;}
</style>
<g>
	<path class="st0" d="M290.8,124.6c-3.8-4.4-7-7-9.6-7.9c-6.3-2.1-63.5-11.9-69.1-13.1c-2.8-1.8-29.1-18.7-48.6-23
		c-0.9-2-3.6-6.3-11-6.4c-0.9,0-6.2-0.2-13.4-0.4c-17.3-0.5-46.3-1.3-53.5-1.3c-8.3,0-11.5,3.6-12.7,5.3c-19,1.1-37.9,26-40,29.5
		c-2.3,3.9-1.5,13.4-1.3,15.9c-1.3,2-6.2,10.5-2.5,18.4c4,8.6,22.4,13.7,23.8,14.1c2.4,8.5,10.2,14.9,19.6,14.9
		c8.2,0,15.3-4.9,18.5-11.9h134.1c3.3,7,10.3,11.9,18.5,11.9c8.2,0,15.2-4.9,18.5-11.9l18.4-0.1c0.1,0,3.1,0.5,5.9-1.8
		c3.2-2.6,4.8-9.3,4.9-16.5c0-1.2,0.1-2.2,0.1-3.1C292,132.9,296,130.5,290.8,124.6z"/>
	<g>
		<g>
			<g>
				<path class="st1" d="M284.2,133.3c-2.3,0-5-0.4-7.1-1.7c-4.8-3-7.2-9.2-7.3-9.5c-0.1-0.3-0.1-0.6,0.1-0.8
					c0.2-0.2,0.4-0.4,0.7-0.4l16.4,0.3c0.5,0,0.9,0.4,0.9,0.9c0,0.5,2.7,9,2.8,9.5c0.1,0.5-0.2,0.9-0.6,1.1
					C289.8,132.6,287.3,133.3,284.2,133.3z"/>
			</g>
			<g>
				<path class="st1" d="M34.8,126.1c-2,0-3.1-0.6-3.2-0.6c-0.4-0.2-0.6-0.8-0.3-1.2c0.2-0.4,0.8-10.4,0.8-10.9
					c0-0.5,0.4-0.9,0.9-0.9c13.6-0.3,13.8,1.1,14,1.8c0.3,1.7-2,8.5-7.1,10.7C37.8,125.9,36.1,126.1,34.8,126.1z"/>
			</g>
			<g>
				<path class="st1" d="M193.6,113.9C193.6,113.9,193.6,113.9,193.6,113.9l-146.3-3.3c-0.3,0-0.7-0.2-0.8-0.5
					c-0.1-0.3-0.1-0.7,0.2-0.9c0.7-0.8,17.6-18.9,23.7-22.8c2.2-1.5,11.3-1.9,18.5-2C99.4,84,114.6,84.5,131,85
					c28.3,0.9,38.5,3,52,11c2,1.2,4,2.2,5.9,3.2c3,1.6,5.8,3,8.1,4.8c0.3,0.2,0.4,0.6,0.3,1l-2.9,8.3
					C194.3,113.6,194,113.9,193.6,113.9z"/>
			</g>
		</g>
		<g>
			<path class="st2" d="M72.6,135.8c-8,0-14.4,6.5-14.4,14.4c0,8,6.5,14.4,14.4,14.4c8,0,14.4-6.5,14.4-14.4
				C87,142.3,80.6,135.8,72.6,135.8z M72.6,162.9c-7,0-12.7-5.7-12.7-12.7c0-7,5.7-12.7,12.7-12.7c7,0,12.7,5.7,12.7,12.7
				C85.3,157.3,79.6,162.9,72.6,162.9z"/>
			<path class="st2" d="M243.8,135.8c-8,0-14.4,6.5-14.4,14.4c0,8,6.5,14.4,14.4,14.4c8,0,14.4-6.5,14.4-14.4
				C258.2,142.3,251.7,135.8,243.8,135.8z M243.8,162.9c-7,0-12.7-5.7-12.7-12.7c0-7,5.7-12.7,12.7-12.7c7,0,12.7,5.7,12.7,12.7
				C256.5,157.3,250.8,162.9,243.8,162.9z"/>
			<path class="st2" d="M158,118.7c-1.2-0.6-3.6-0.8-5.5-0.8c-1.7,0-3.2,0.2-4.1,0.5c-2.4,0.9-3.2,3.1-3.2,3.2c0,0.1,0,0.3,0,0.4
				c0.1,0.1,0.2,0.2,0.3,0.2c0.1,0,6.3,0.4,10.6,0.4c3.7,0,4.2-0.3,4.3-0.7C161,120.5,159.6,119.5,158,118.7z M156.1,121.6
				c-3.4,0-8.2-0.3-9.9-0.4c0.3-0.6,1.1-1.6,2.4-2.1c0.8-0.3,2.2-0.4,3.8-0.4c2.2,0,4.2,0.3,5.1,0.7c1.9,1,2.2,1.5,2.1,1.9
				C159.4,121.5,158.7,121.6,156.1,121.6z"/>
			<path class="st2" d="M91,122.1c0.1,0,6.3,0.4,10.6,0.4c3.8,0,4.2-0.3,4.3-0.7c0.5-1.4-0.9-2.3-2.5-3.1c-1.2-0.6-3.6-0.8-5.5-0.8
				c-1.7,0-3.2,0.2-4.1,0.5c-2.4,0.9-3.2,3.1-3.2,3.2c0,0.1,0,0.3,0.1,0.4C90.8,122,90.9,122.1,91,122.1z M94.2,119.1
				c0.8-0.3,2.2-0.4,3.8-0.4c2.2,0,4.2,0.3,5.1,0.7c1.9,1,2.2,1.5,2.1,1.9c-0.2,0.1-0.9,0.2-3.5,0.2c-3.4,0-8.2-0.3-9.9-0.4
				C92.1,120.6,92.8,119.6,94.2,119.1z"/>
			<path class="st2" d="M290.8,124.6c-0.8-2.4-7-7-9.6-7.9c-2.4-0.8-15.6-3.8-30.1-6.9c-17.4-3.7-36.5-5.7-39-6.2
				c-2.8-1.8-29.1-18.7-48.6-23c-0.9-2-3.6-6.3-11-6.4c-0.9,0-6.2-0.2-13.4-0.4c-17.3-0.5-46.3-1.3-53.5-1.3
				c-8.3,0-11.5,3.6-12.7,5.3c-19,1.1-37.9,26-40,29.5c-2.3,3.9-1.5,13.4-1.3,15.9c-1.3,2-6.2,10.5-2.5,18.4
				c4,8.6,22.4,13.7,23.8,14.1c2.4,8.5,10.2,14.9,19.6,14.9c8.2,0,15.3-4.9,18.5-11.9h134.1c3.3,7,10.3,11.9,18.5,11.9
				c8.2,0,15.2-4.9,18.5-11.9l18.4-0.1c0.1,0,3.1,0.5,5.9-1.8c3.2-2.6,4.8-9.3,4.9-16.5c0-1.2,0.1-2.2,0.1-3.1
				C292,132.9,291.6,127,290.8,124.6z M288,126.5c0.5,1.8,0.5,3.6,0.5,5.2c-2.3,0.4-7.3,1-10.7-1.1c-3.6-2.3-5.8-6.7-6.5-8.3l14,0.2
				C286.3,123.6,287.6,124.8,288,126.5z M139.1,75.7c7.3,0.2,12.5,0.4,13.4,0.4c5.2,0.1,7.7,2.4,8.8,4.2c-0.6-0.1-1.1-0.2-1.7-0.3
				c-19.5-2.6-64.8-2.9-84.4-2.1c1.4-1.5,4.5-3.5,10.4-3.5C92.9,74.4,121.8,75.2,139.1,75.7z M34.1,114c5.3-0.1,10.9,0.2,11.4,0.7
				c0.2,1.1-1.8,7.2-6.3,9.2c-2.4,1-4.2,1.1-5.4,1c0.2-0.3,0.3-0.5,0.3-0.5c0.2-0.3,0.3-0.6,0.2-0.9C34.2,121.6,33.9,117.6,34.1,114
				z M72.6,168.1c-9.8,0-17.8-8-17.8-17.8c0-9.8,8-17.8,17.8-17.8c9.8,0,17.8,8,17.8,17.8c0,2.2-0.5,4.3-1.2,6.2
				c-0.1,0.4-0.5,1.1-0.5,1.2C85.9,163.8,79.8,168.1,72.6,168.1z M243.8,168.1c-9.8,0-17.8-8-17.8-17.8c0-9.8,8-17.8,17.8-17.8
				c9.8,0,17.8,8,17.8,17.8C261.6,160.1,253.6,168.1,243.8,168.1z M289,137.2c-0.1,0.9-0.1,2-0.2,3.2c-0.1,7.9-2.2,13-3.9,14.5
				c-1.9,1.6-3.8,1.3-4.1,1.3l-17.7,0c0.6-1.9,1-3.9,1-6c0-11.3-9.2-20.4-20.4-20.4c-11.3,0-20.4,9.2-20.4,20.4c0,2.1,0.4,4,1,5.9
				h-73.9c-1.1-1.7-2.1-3.5-3.1-5.2c1.9,0,3.8,0,5.8,0c17.2,0,37.1-0.1,55.3-0.3c2,0,3.2,0,3.5,0c2.9,0,4-1.9,4.9-5.6
				c0.2-0.7,4.5-16.9,16.8-20.2c0.2-0.1,0.4-0.3,0.3-0.5c-0.1-0.2-0.3-0.4-0.5-0.3c-12.8,3.4-17.2,20.2-17.4,20.9
				c-1,3.8-1.9,4.9-4.1,4.9c-0.3,0-1.5,0-3.5,0c-27.1,0.2-47,0.3-61.5,0.3c-9.4-17.6-11.5-34.1-11.8-37.8l58.1,1.3
				c-0.1,0.4-0.2,0.7-0.2,0.7c-0.1,0.3-0.1,0.9,0.2,1.3c0.6,0.7,2.1,1,5.6,1.1c0.2,0,0.5,0,0.7,0c4.4,0,6.3-1.5,6.7-2.3
				c0.1-0.2,0.1-0.8,0-1.7l20,2.3c0,0,0,0,0,0c0.2,0,0.4-0.2,0.4-0.4c0-0.2-0.1-0.5-0.4-0.5l-20.2-2.3c-0.2-1.1-0.4-2.4-0.7-4.1
				c0-0.1-1.5-5.6-6.2-5.6c-1,0-1.9,0.9-2.6,2.1c-2.2-1.7-4.9-3.1-7.7-4.6c-1.9-1-3.9-2-5.9-3.2c-13.4-7.9-23.5-10.1-51.8-10.9
				c-13.7-0.4-26.7-0.8-36.7-0.8c-0.9,0-1.7,0-2.5,0c0,0,0,0,0,0c-1,0-2.1,0-3,0c-7.1,0.1-16.1,0.6-18.3,2c-6,3.9-22.9,22-23.6,22.8
				c-0.1,0.1-0.1,0.3-0.1,0.5c0.1,0.2,0.2,0.3,0.4,0.3l86.8,1.9c0.3,3.5,2.3,20.1,11.7,37.8c-29.3-0.1-36.5-0.6-37.6-0.9
				c-4.3-1.5-6-4.3-10.4-12c-0.6-1-1.2-2.1-1.9-3.4c-6-10.4-19.6-11.6-19.8-11.6c-0.2,0-0.5,0.2-0.5,0.4c0,0.2,0.2,0.5,0.4,0.5
				c0.1,0,13.3,1.2,19.1,11.2c0.7,1.2,1.3,2.3,1.9,3.3c4.5,7.9,6.2,10.8,10.8,12.4c2,0.7,17.7,0.9,38.4,1c0.9,1.7,1.9,3.5,3,5.2
				H92.1c0.6-1.9,1-3.9,1-5.9c0-11.3-9.2-20.4-20.4-20.4c-11.3,0-20.4,9.2-20.4,20.4c0,0.9,0.2,1.8,0.3,2.7
				c-4.3-1.3-17.9-5.8-20.9-12.3c-2.7-5.8,0.2-12.2,1.7-14.9c0.4,0.1,0.9,0.1,1.4,0.1c1.3,0,2.9-0.3,4.8-1.1
				c4.8-2.1,7.1-8.5,6.8-10.2c-0.3-1.3-6.5-1.5-12.2-1.5c0.2-1.8,0.5-3.4,1-4.4c2-3.4,20.1-27.3,38.1-28.2c18.2-0.9,66-0.7,86,2
				c19.6,2.6,51.2,23.2,51.5,23.4c0.1,0.1,0.3,0.2,0.4,0.2c0.3,0.1,20.8,2.4,39.3,6.3c14.4,3,27.4,6,29.7,6.8c0.8,0.3,2.1,1,3.8,2.5
				l-13.6-0.2c0,0,0,0,0,0c-0.1,0-0.3,0.1-0.4,0.2c-0.1,0.1-0.1,0.3-0.1,0.4c0.1,0.3,2.5,6.3,7.1,9.3c2,1.3,4.6,1.6,6.8,1.6
				c1.9,0,3.6-0.3,4.6-0.5C289.2,134.1,289.2,135.4,289,137.2z M48.3,109.5C51.5,106.1,65.7,91,71,87.6c1.5-1,8-1.7,17.8-1.8
				c0.6,0,1.3,0,1.9,0c-2.6,2.6-10.5,11.7-11.5,24.4L48.3,109.5z M91.9,85.8c0.8,0,1.6,0,2.4,0c10,0,23,0.4,36.7,0.8
				c1.4,0,2.8,0.1,4.1,0.1c-2.8,8.1-1.3,23.2-1.1,24.7l-54-1.2C81.1,96.3,90.7,86.9,91.9,85.8z M136,86.8
				C136,86.8,136,86.8,136,86.8c24.3,0.9,33.9,3.2,46.3,10.5c2,1.2,4,2.2,5.9,3.2c2.8,1.5,5.5,2.9,7.6,4.5l-0.1,0.2
				c-1.2,2.4-2.1,5.6-2.6,7.5l-58.4-1.3C134.8,110.8,133.1,94.8,136,86.8z M196.7,105.5c0.8-1.4,1.6-2.4,2.3-2.4
				c4,0,5.3,4.9,5.3,4.9c0.5,2.7,1,5.7,0.9,6.1c-0.2,0.4-1.7,1.8-5.9,1.8c-0.2,0-0.4,0-0.7,0c-1.9-0.1-4.4-0.2-4.9-0.8
				c-0.1-0.1-0.1-0.2-0.1-0.6c0.1-0.4,0.2-0.9,0.3-1.3L196.7,105.5z"/>
		</g>
	</g>
</g>
</svg>
